<svg xmlns="http://www.w3.org/2000/svg" xmlns:xlink="http://www.w3.org/1999/xlink"
    viewBox="0 0 800 65.41">
    <defs>
        <style>
            .cls-1{fill:none;}.cls-2{fill:#fff;}.cls-3{fill:#eaeaea;}.cls-4{fill:#fffae1;}.cls-5{clip-path:url(#clip-path);}.cls-16,.cls-6{fill:#6D7584;}.cls-7{fill:#546b81;}.cls-8{fill:#fdce9b;}.cls-9{fill:#f9b27e;}.cls-10{fill:#4e5860;}.cls-11{fill:#808795;}.cls-12{fill:#452f2d;}.cls-13{fill:#fcb415;}.cls-14{fill:#424b53;}.cls-15{fill:#bbe5fa;}.cls-16{opacity:0.4;}
        </style>
        <clipPath id="clip-path">
            <rect class="cls-1" width="75.98" height="65.41" rx="8" />
        </clipPath>
    </defs>
    <g id="Rough_Paper_Effect" data-name="Rough Paper Effect">
        <g id="Paper_copy" data-name="Paper copy">
            <g id="Give-Star-Repo">
                <rect id="BG-Star" class="cls-3" y="15.41" width="800" height="50" rx="8" />
                <g id="Star-BG">
                    <path class="cls-4"
                        d="M240.62,53.23c-.07-1.2-.15-2.39-.25-3.58a.45.45,0,0,0-.89,0c-.1,1.19-.18,2.38-.25,3.58a9.33,9.33,0,0,0,0,3.25.72.72,0,0,0,1.37,0A9.33,9.33,0,0,0,240.62,53.23Z" />
                    <path class="cls-4"
                        d="M239.8,53.8c1.2-.07,2.39-.15,3.58-.25a.45.45,0,0,0,0-.89c-1.19-.1-2.38-.18-3.58-.25a9.33,9.33,0,0,0-3.25,0,.72.72,0,0,0,0,1.37A9.33,9.33,0,0,0,239.8,53.8Z" />
                    <path class="cls-4"
                        d="M148.49,24.45c-.07-1.19-.16-2.38-.25-3.57a.45.45,0,0,0-.89,0c-.1,1.19-.18,2.38-.25,3.57a9.39,9.39,0,0,0,0,3.26.72.72,0,0,0,1.37,0A9.39,9.39,0,0,0,148.49,24.45Z" />
                    <path class="cls-4"
                        d="M147.67,25c1.2-.07,2.39-.15,3.58-.25a.44.44,0,0,0,0-.88c-1.19-.1-2.38-.18-3.58-.25a9.33,9.33,0,0,0-3.25,0,.71.71,0,0,0,0,1.36A8.87,8.87,0,0,0,147.67,25Z" />
                    <path class="cls-4"
                        d="M76.65,43.22c-.07-1.2-.15-2.39-.25-3.58a.45.45,0,0,0-.89,0c-.09,1.19-.18,2.38-.25,3.58a9.33,9.33,0,0,0,0,3.25.72.72,0,0,0,1.37,0A9.33,9.33,0,0,0,76.65,43.22Z" />
                    <path class="cls-4"
                        d="M75.83,43.79c1.2-.07,2.39-.15,3.58-.25a.45.45,0,0,0,0-.89c-1.19-.1-2.38-.18-3.58-.25a9.33,9.33,0,0,0-3.25,0,.72.72,0,0,0,0,1.37A9.33,9.33,0,0,0,75.83,43.79Z" />
                    <path class="cls-4"
                        d="M39.86,26.49c-.06-1-.13-2.09-.21-3.13a.39.39,0,0,0-.78,0c-.08,1-.15,2.08-.22,3.13a8.21,8.21,0,0,0,0,2.84.63.63,0,0,0,1.2,0A8,8,0,0,0,39.86,26.49Z" />
                    <path class="cls-4"
                        d="M39.15,27l3.13-.22a.39.39,0,0,0,0-.78l-3.13-.22a8.21,8.21,0,0,0-2.84,0,.63.63,0,0,0,0,1.2A8.21,8.21,0,0,0,39.15,27Z" />
                    <path class="cls-4"
                        d="M220.7,57.49l-.38.23a.55.55,0,1,0,.76.76l.23-.39A.44.44,0,0,0,220.7,57.49Z" />
                    <path class="cls-4"
                        d="M227.15,50.35a.65.65,0,0,0,0,1.29A.65.65,0,0,0,227.15,50.35Z" />
                    <path class="cls-4"
                        d="M61.88,52.51l-.12-.3a.35.35,0,0,0-.67,0l-.12.3c-.12.29.18.59.45.59S62,52.8,61.88,52.51Z" />
                    <path class="cls-4" d="M69.94,48.68a0,0,0,0,0,0,0A0,0,0,0,0,69.94,48.68Z" />
                    <path class="cls-4"
                        d="M70.54,37.16a.28.28,0,0,0-.54,0l0,.32a.32.32,0,1,0,.63,0Z" />
                    <path class="cls-4"
                        d="M88.71,39.18l-.32-.06a.42.42,0,1,0,0,.82l.32-.06A.37.37,0,0,0,88.71,39.18Z" />
                    <path class="cls-4"
                        d="M99,42.31l-.3.11a.4.4,0,0,0,0,.77l.3.12a.53.53,0,0,0,.66-.5A.52.52,0,0,0,99,42.31Z" />
                    <path class="cls-4"
                        d="M32.86,19.48h0a.41.41,0,0,0,0,.78h0a.56.56,0,1,0,0-.8Z" />
                    <path class="cls-4"
                        d="M25.76,33.75a.68.68,0,0,1-.07-.2.31.31,0,0,0-.59,0,.68.68,0,0,1-.07.2.42.42,0,1,0,.73,0Z" />
                    <path class="cls-4" d="M36.53,39.7a.49.49,0,0,0,0,1A.49.49,0,0,0,36.53,39.7Z" />
                    <path class="cls-4"
                        d="M43.57,32.69l-.38.24a.44.44,0,0,0-.09.68.44.44,0,0,0,.68-.08l.25-.38A.34.34,0,0,0,43.57,32.69Z" />
                    <path class="cls-4" d="M52.25,24a.43.43,0,0,0,0,.85A.43.43,0,0,0,52.25,24Z" />
                    <path class="cls-4"
                        d="M137.08,48.27a.43.43,0,0,0,0,.86A.43.43,0,0,0,137.08,48.27Z" />
                    <path class="cls-4"
                        d="M149.76,47.56l-.09-.63a.49.49,0,0,0-.94,0l-.09.63a.58.58,0,1,0,1.12,0Z" />
                    <path class="cls-4" d="M158.37,31.6a.4.4,0,0,0,0,.79A.4.4,0,0,0,158.37,31.6Z" />
                    <path class="cls-4"
                        d="M166.89,46.9a.49.49,0,0,0,0,1A.49.49,0,0,0,166.89,46.9Z" />
                    <path class="cls-4"
                        d="M155.75,16a.9.9,0,0,0-.4,0,.59.59,0,0,0,0,1.13,1.08,1.08,0,0,0,.4,0A.59.59,0,0,0,155.75,16Z" />
                    <path class="cls-4" d="M136.43,28a.39.39,0,0,0,0,.77A.39.39,0,0,0,136.43,28Z" />
                    <path class="cls-4"
                        d="M505.77,58.25c-.07-1.19-.15-2.38-.25-3.58a.45.45,0,0,0-.89,0c-.09,1.2-.17,2.39-.25,3.58a9.39,9.39,0,0,0,0,3.26.72.72,0,0,0,1.37,0A9.39,9.39,0,0,0,505.77,58.25Z" />
                    <path class="cls-4"
                        d="M505,58.82c1.19-.07,2.38-.15,3.57-.25a.44.44,0,0,0,0-.88c-1.19-.1-2.38-.18-3.57-.25a8.93,8.93,0,0,0-3.26,0,.71.71,0,0,0,0,1.36A8.93,8.93,0,0,0,505,58.82Z" />
                    <path class="cls-4"
                        d="M413.64,29.48c-.07-1.19-.15-2.39-.25-3.58a.45.45,0,0,0-.89,0c-.09,1.19-.18,2.39-.25,3.58a9.39,9.39,0,0,0,0,3.26.72.72,0,0,0,1.37,0A9.39,9.39,0,0,0,413.64,29.48Z" />
                    <path class="cls-4"
                        d="M412.83,30.05c1.19-.07,2.38-.15,3.57-.25a.44.44,0,0,0,0-.88c-1.19-.1-2.38-.18-3.57-.25a8.93,8.93,0,0,0-3.26,0,.71.71,0,0,0,0,1.36A9.15,9.15,0,0,0,412.83,30.05Z" />
                    <path class="cls-4"
                        d="M341.8,48.24c-.07-1.19-.15-2.38-.25-3.57a.44.44,0,0,0-.88,0c-.1,1.19-.18,2.38-.25,3.57a9.15,9.15,0,0,0,0,3.26.71.71,0,0,0,1.36,0A8.93,8.93,0,0,0,341.8,48.24Z" />
                    <path class="cls-4"
                        d="M341,48.81c1.19-.07,2.38-.15,3.58-.25a.44.44,0,0,0,0-.88c-1.2-.1-2.39-.18-3.58-.25a9.39,9.39,0,0,0-3.26,0,.71.71,0,0,0,0,1.36A8.93,8.93,0,0,0,341,48.81Z" />
                    <path class="cls-4"
                        d="M305,31.51c-.06-1-.13-2.08-.22-3.12a.39.39,0,0,0-.77,0c-.09,1-.16,2.08-.22,3.12a7.8,7.8,0,0,0,0,2.85.62.62,0,0,0,1.19,0A8.26,8.26,0,0,0,305,31.51Z" />
                    <path class="cls-4"
                        d="M304.31,32c1-.06,2.08-.13,3.12-.22a.39.39,0,0,0,0-.77c-1-.09-2.08-.16-3.12-.22a8.26,8.26,0,0,0-2.85,0,.62.62,0,0,0,0,1.19A7.8,7.8,0,0,0,304.31,32Z" />
                    <path class="cls-4"
                        d="M485.86,62.52l-.39.23a.55.55,0,1,0,.76.76l.23-.39A.44.44,0,0,0,485.86,62.52Z" />
                    <path class="cls-4"
                        d="M492.3,55.38a.64.64,0,0,0,0,1.28A.64.64,0,0,0,492.3,55.38Z" />
                    <path class="cls-4"
                        d="M327,57.53l-.12-.29a.35.35,0,0,0-.67,0l-.12.29a.48.48,0,0,0,.46.6A.47.47,0,0,0,327,57.53Z" />
                    <path class="cls-4" d="M335.09,53.7a0,0,0,0,0,0,0S335.13,53.7,335.09,53.7Z" />
                    <path class="cls-4"
                        d="M335.69,42.19a.28.28,0,0,0-.54,0l0,.32a.32.32,0,1,0,.63,0Z" />
                    <path class="cls-4"
                        d="M353.86,44.21l-.31-.06a.42.42,0,1,0,0,.81l.31-.05A.36.36,0,0,0,353.86,44.21Z" />
                    <path class="cls-4"
                        d="M364.11,47.33l-.3.11a.41.41,0,0,0,0,.78l.3.11a.52.52,0,1,0,0-1Z" />
                    <path class="cls-4" d="M298,24.51h0a.4.4,0,0,0,0,.77h0a.57.57,0,1,0,0-.8Z" />
                    <path class="cls-4"
                        d="M290.91,38.78a1.17,1.17,0,0,1-.06-.2.32.32,0,0,0-.6,0,1.17,1.17,0,0,1-.06.2.42.42,0,1,0,.72,0Z" />
                    <path class="cls-4"
                        d="M301.69,44.72a.49.49,0,0,0,0,1A.49.49,0,0,0,301.69,44.72Z" />
                    <path class="cls-4"
                        d="M308.72,37.72l-.37.24a.43.43,0,0,0-.09.68.44.44,0,0,0,.68-.09l.24-.37A.34.34,0,0,0,308.72,37.72Z" />
                    <path class="cls-4"
                        d="M317.41,29.07a.42.42,0,0,0,0,.84A.42.42,0,0,0,317.41,29.07Z" />
                    <path class="cls-4"
                        d="M402.24,53.3a.43.43,0,0,0,0,.86A.43.43,0,0,0,402.24,53.3Z" />
                    <path class="cls-4"
                        d="M414.92,52.59l-.09-.63a.5.5,0,0,0-.95,0l-.09.63a.59.59,0,0,0,.56.74A.6.6,0,0,0,414.92,52.59Z" />
                    <path class="cls-4"
                        d="M423.52,36.63a.4.4,0,0,0,0,.79A.4.4,0,0,0,423.52,36.63Z" />
                    <path class="cls-4" d="M432,51.93a.49.49,0,0,0,0,1A.49.49,0,0,0,432,51.93Z" />
                    <path class="cls-4"
                        d="M420.9,21.05a.9.9,0,0,0-.4,0,.59.59,0,0,0,0,1.12,1.08,1.08,0,0,0,.4,0A.59.59,0,0,0,420.9,21.05Z" />
                    <path class="cls-4" d="M401.58,33a.39.39,0,0,0,0,.77A.39.39,0,0,0,401.58,33Z" />
                    <path class="cls-4"
                        d="M751.61,54.25c-.07-1.19-.15-2.38-.25-3.58a.45.45,0,0,0-.89,0c-.09,1.2-.18,2.39-.25,3.58a9.39,9.39,0,0,0,0,3.26.72.72,0,0,0,1.37,0A9.39,9.39,0,0,0,751.61,54.25Z" />
                    <path class="cls-4"
                        d="M750.79,54.82c1.2-.07,2.39-.15,3.58-.25a.44.44,0,0,0,0-.88c-1.19-.1-2.38-.18-3.58-.25a8.87,8.87,0,0,0-3.25,0,.71.71,0,0,0,0,1.36A8.87,8.87,0,0,0,750.79,54.82Z" />
                    <path class="cls-4"
                        d="M659.48,25.48c-.07-1.19-.15-2.39-.25-3.58a.45.45,0,0,0-.89,0c-.09,1.19-.18,2.39-.25,3.58a9.39,9.39,0,0,0,0,3.26.72.72,0,0,0,1.37,0A9.39,9.39,0,0,0,659.48,25.48Z" />
                    <path class="cls-4"
                        d="M658.66,26.05c1.2-.07,2.39-.15,3.58-.25a.44.44,0,0,0,0-.88c-1.19-.1-2.38-.18-3.58-.25a8.87,8.87,0,0,0-3.25,0,.71.71,0,0,0,0,1.36A9.1,9.1,0,0,0,658.66,26.05Z" />
                    <path class="cls-4"
                        d="M587.64,44.24c-.07-1.19-.15-2.38-.25-3.57a.44.44,0,0,0-.88,0c-.1,1.19-.18,2.38-.25,3.57a8.93,8.93,0,0,0,0,3.26.71.71,0,0,0,1.36,0A8.93,8.93,0,0,0,587.64,44.24Z" />
                    <path class="cls-4"
                        d="M586.83,44.81c1.19-.07,2.38-.15,3.58-.25a.44.44,0,0,0,0-.88c-1.2-.1-2.39-.18-3.58-.25a9.39,9.39,0,0,0-3.26,0,.71.71,0,0,0,0,1.36A8.93,8.93,0,0,0,586.83,44.81Z" />
                    <path class="cls-4"
                        d="M550.86,27.51c-.06-1-.13-2.08-.22-3.12a.39.39,0,0,0-.77,0c-.09,1-.16,2.08-.22,3.12a7.8,7.8,0,0,0,0,2.85.62.62,0,0,0,1.19,0A8.26,8.26,0,0,0,550.86,27.51Z" />
                    <path class="cls-4"
                        d="M550.15,28c1-.06,2.08-.13,3.12-.22a.39.39,0,0,0,0-.77c-1-.09-2.08-.16-3.12-.22a8.26,8.26,0,0,0-2.85,0,.62.62,0,0,0,0,1.19A7.8,7.8,0,0,0,550.15,28Z" />
                    <path class="cls-4"
                        d="M731.7,58.52l-.39.23a.55.55,0,0,0-.11.87.56.56,0,0,0,.87-.11l.23-.39A.44.44,0,0,0,731.7,58.52Z" />
                    <path class="cls-4"
                        d="M738.14,51.38a.64.64,0,0,0,0,1.28A.64.64,0,0,0,738.14,51.38Z" />
                    <path class="cls-4"
                        d="M572.87,53.53l-.12-.29a.35.35,0,0,0-.67,0l-.12.29a.48.48,0,0,0,.46.6A.47.47,0,0,0,572.87,53.53Z" />
                    <path class="cls-4" d="M580.93,49.7a0,0,0,0,0,0,0A0,0,0,0,0,580.93,49.7Z" />
                    <path class="cls-4"
                        d="M581.53,38.19a.28.28,0,0,0-.54,0l0,.32a.32.32,0,1,0,.63,0Z" />
                    <path class="cls-4"
                        d="M599.7,40.21l-.31-.06a.42.42,0,1,0,0,.81l.31-.05A.36.36,0,0,0,599.7,40.21Z" />
                    <path class="cls-4"
                        d="M609.94,43.33l-.29.11a.41.41,0,0,0,0,.78l.29.11a.52.52,0,1,0,0-1Z" />
                    <path class="cls-4" d="M543.85,20.51h0a.4.4,0,0,0,0,.77h0a.57.57,0,1,0,0-.8Z" />
                    <path class="cls-4"
                        d="M536.75,34.78a1.17,1.17,0,0,1-.06-.2.32.32,0,0,0-.6,0,1.17,1.17,0,0,1-.06.2.42.42,0,1,0,.72,0Z" />
                    <path class="cls-4"
                        d="M547.53,40.72a.49.49,0,0,0,0,1A.49.49,0,0,0,547.53,40.72Z" />
                    <path class="cls-4"
                        d="M554.56,33.72l-.37.24a.43.43,0,0,0-.09.68.44.44,0,0,0,.68-.09l.24-.37A.34.34,0,0,0,554.56,33.72Z" />
                    <path class="cls-4"
                        d="M563.25,25.07a.42.42,0,0,0,0,.84A.42.42,0,0,0,563.25,25.07Z" />
                    <path class="cls-4"
                        d="M648.07,49.3a.43.43,0,0,0,0,.86A.43.43,0,0,0,648.07,49.3Z" />
                    <path class="cls-4"
                        d="M660.76,48.59l-.09-.63a.5.5,0,0,0-.95,0l-.09.63a.59.59,0,0,0,.56.74A.6.6,0,0,0,660.76,48.59Z" />
                    <path class="cls-4"
                        d="M669.36,32.63a.4.4,0,0,0,0,.79A.4.4,0,0,0,669.36,32.63Z" />
                    <path class="cls-4"
                        d="M677.88,47.93a.49.49,0,0,0,0,1A.49.49,0,0,0,677.88,47.93Z" />
                    <path class="cls-4"
                        d="M666.74,17.05a.9.9,0,0,0-.4,0,.59.59,0,0,0,0,1.12,1.08,1.08,0,0,0,.4,0A.59.59,0,0,0,666.74,17.05Z" />
                    <path class="cls-4" d="M647.42,29a.39.39,0,0,0,0,.77A.39.39,0,0,0,647.42,29Z" />
                </g>
                <path d="M54.93,34.93h1.34v10.5H54.93Z" />
                <path
                    d="M58.18,37.73l1.11-.08H62.2v1.07h-4Zm1-1.31c0-1.58.72-2.58,2.28-2.58a3.61,3.61,0,0,1,1.29.26l-.27,1a2.12,2.12,0,0,0-.89-.2c-.73,0-1.09.51-1.09,1.52v9H59.23Z" />
                <path
                    d="M66.11,48.62l.26-1a2.06,2.06,0,0,0,.59.11c.88,0,1.43-.7,1.75-1.67l.18-.57-3.12-7.8h1.35L68.71,42c.25.67.51,1.47.76,2.19h.06c.22-.71.44-1.5.66-2.19l1.38-4.31h1.3l-2.94,8.42c-.55,1.55-1.35,2.71-2.91,2.71A2.43,2.43,0,0,1,66.11,48.62Z" />
                <path
                    d="M73.72,41.55c0-2.6,1.69-4.09,3.6-4.09s3.61,1.49,3.61,4.09-1.7,4.07-3.61,4.07S73.72,44.13,73.72,41.55Zm5.85,0c0-1.78-.91-3-2.25-3s-2.24,1.22-2.24,3,.9,3,2.24,3S79.57,43.33,79.57,41.55Z" />
                <path
                    d="M82.86,42.58V37.65h1.32v4.76c0,1.45.44,2.07,1.47,2.07.79,0,1.34-.39,2.08-1.31V37.65h1.32v7.78H88l-.11-1.22h0a3.29,3.29,0,0,1-2.56,1.41C83.6,45.62,82.86,44.56,82.86,42.58Z" />
                <path
                    d="M94.87,43.87V34h1.32V44c0,.41.17.57.36.57a.89.89,0,0,0,.29,0l.18,1a2.07,2.07,0,0,1-.76.12C95.28,45.62,94.87,45,94.87,43.87Z" />
                <path
                    d="M98.71,35.2a.91.91,0,0,1,1.82,0,.91.91,0,0,1-1.82,0ZM99,37.65h1.32v7.78H99Z" />
                <path
                    d="M102.89,34h1.29v7.72h0l3.33-4.1H109l-2.6,3.13,2.95,4.65h-1.44l-2.27-3.74-1.46,1.7v2h-1.29Z" />
                <path
                    d="M109.94,41.55c0-2.53,1.71-4.09,3.5-4.09,2,0,3.1,1.42,3.1,3.65a4,4,0,0,1-.06.75h-5.24a2.59,2.59,0,0,0,2.59,2.71,3.39,3.39,0,0,0,1.93-.62l.48.87a4.66,4.66,0,0,1-2.57.8C111.59,45.62,109.94,44.11,109.94,41.55Zm5.44-.64c0-1.56-.7-2.4-1.92-2.4a2.39,2.39,0,0,0-2.23,2.4Z" />
                <path
                    d="M121.89,43V38.72h-1.16v-1l1.22-.08.15-2.18h1.1v2.18h2.11v1.07H123.2v4.33c0,1,.31,1.5,1.21,1.5a2.46,2.46,0,0,0,.88-.21l.26,1a5,5,0,0,1-1.45.28C122.45,45.62,121.89,44.57,121.89,43Z" />
                <path
                    d="M127.06,34h1.32v3.12l0,1.6a3.69,3.69,0,0,1,2.59-1.29c1.63,0,2.37,1.06,2.37,3v4.93H132V40.67c0-1.45-.43-2.07-1.46-2.07a3,3,0,0,0-2.13,1.2v5.63h-1.32Z" />
                <path
                    d="M135.53,35.2a.91.91,0,0,1,1.82,0,.91.91,0,0,1-1.82,0Zm.24,2.45h1.31v7.78h-1.31Z" />
                <path
                    d="M138.84,44.54l.65-.86a3.53,3.53,0,0,0,2.3.92c1,0,1.53-.55,1.53-1.21s-.92-1.16-1.78-1.48c-1.09-.39-2.32-.93-2.32-2.24s1-2.21,2.68-2.21a3.92,3.92,0,0,1,2.42.87l-.63.85a2.93,2.93,0,0,0-1.78-.7c-1,0-1.43.53-1.43,1.12s.85,1,1.73,1.35c1.12.42,2.37.88,2.37,2.36,0,1.26-1,2.31-2.84,2.31A4.68,4.68,0,0,1,138.84,44.54Z" />
                <path
                    d="M149.61,37.65h1.09l.11.9h0a4.06,4.06,0,0,1,2.48-1.09c2,0,3.09,1.56,3.09,4,0,2.65-1.6,4.2-3.37,4.2a3.53,3.53,0,0,1-2.16-.9l0,1.36v2.63h-1.31Zm5.44,3.79c0-1.72-.58-2.87-2.05-2.87a3.2,3.2,0,0,0-2.08,1.06v4.08a3.06,3.06,0,0,0,1.9.81C154.11,44.52,155.05,43.36,155.05,41.44Z" />
                <path
                    d="M158.49,37.65h1.08l.12,1.42h0a2.68,2.68,0,0,1,2.21-1.61,1.73,1.73,0,0,1,.83.16l-.24,1.15a2.33,2.33,0,0,0-.76-.12c-.65,0-1.44.47-2,1.79v5h-1.31Z" />
                <path
                    d="M163.3,41.55c0-2.6,1.7-4.09,3.61-4.09s3.6,1.49,3.6,4.09-1.7,4.07-3.6,4.07S163.3,44.13,163.3,41.55Zm5.85,0c0-1.78-.91-3-2.24-3s-2.25,1.22-2.25,3,.91,3,2.25,3S169.15,43.33,169.15,41.55Z" />
                <path
                    d="M170.6,48.7l.26-1a2.72,2.72,0,0,0,.74.13c.78,0,1-.58,1-1.52V37.65h1.32v8.66c0,1.59-.58,2.6-2.14,2.6A3.13,3.13,0,0,1,170.6,48.7Zm1.72-13.5a.91.91,0,0,1,1.82,0,.91.91,0,0,1-1.82,0Z" />
                <path
                    d="M175.92,41.55c0-2.53,1.71-4.09,3.5-4.09,2,0,3.11,1.42,3.11,3.65a5.06,5.06,0,0,1-.06.75h-5.24a2.57,2.57,0,0,0,2.58,2.71,3.42,3.42,0,0,0,1.94-.62l.47.87a4.61,4.61,0,0,1-2.57.8A3.72,3.72,0,0,1,175.92,41.55Zm5.44-.64c0-1.56-.7-2.4-1.91-2.4a2.38,2.38,0,0,0-2.23,2.4Z" />
                <path
                    d="M183.86,41.55a3.77,3.77,0,0,1,3.74-4.09,3.27,3.27,0,0,1,2.28.91l-.67.87a2.26,2.26,0,0,0-1.55-.69c-1.41,0-2.44,1.22-2.44,3s1,3,2.41,3a2.78,2.78,0,0,0,1.82-.78l.58.88a3.77,3.77,0,0,1-2.52,1C185.44,45.62,183.86,44.13,183.86,41.55Z" />
                <path
                    d="M191.8,43V38.72h-1.15v-1l1.21-.08.16-2.18h1.1v2.18h2.11v1.07h-2.11v4.33c0,1,.31,1.5,1.2,1.5a2.47,2.47,0,0,0,.89-.21l.26,1a5,5,0,0,1-1.45.28C192.37,45.62,191.8,44.57,191.8,43Z" />
                <path
                    d="M196.54,47.38a2.18,2.18,0,0,0,1.44-2l-.14-1.18.64,1a.8.8,0,0,1-.66.27.89.89,0,0,1-1-.91.92.92,0,0,1,1-.92c.7,0,1.12.58,1.12,1.54a3.18,3.18,0,0,1-2.1,3Z" />
                <path
                    d="M204.28,37.65h1.09l.11.9h0A4.06,4.06,0,0,1,208,37.46c2,0,3.09,1.56,3.09,4,0,2.65-1.6,4.2-3.37,4.2a3.55,3.55,0,0,1-2.16-.9l0,1.36v2.63h-1.32Zm5.45,3.79c0-1.72-.59-2.87-2-2.87a3.18,3.18,0,0,0-2.08,1.06v4.08a3,3,0,0,0,1.89.81C208.78,44.52,209.73,43.36,209.73,41.44Z" />
                <path
                    d="M213.09,43.87V34h1.32V44c0,.41.18.57.37.57a1,1,0,0,0,.29,0l.17,1a2,2,0,0,1-.75.12C213.5,45.62,213.09,45,213.09,43.87Z" />
                <path
                    d="M216.6,41.55c0-2.53,1.7-4.09,3.49-4.09,2,0,3.11,1.42,3.11,3.65a4,4,0,0,1-.06.75H217.9a2.57,2.57,0,0,0,2.58,2.71,3.42,3.42,0,0,0,1.94-.62l.47.87a4.61,4.61,0,0,1-2.57.8C218.25,45.62,216.6,44.11,216.6,41.55Zm5.44-.64c0-1.56-.71-2.4-1.92-2.4a2.38,2.38,0,0,0-2.23,2.4Z" />
                <path
                    d="M224.4,43.41c0-1.69,1.47-2.54,4.78-2.9,0-1-.33-2-1.6-2a4.28,4.28,0,0,0-2.32.84l-.52-.91a5.73,5.73,0,0,1,3.06-1c1.9,0,2.7,1.26,2.7,3.2v4.77h-1.09l-.11-.93h0a4.12,4.12,0,0,1-2.58,1.12A2.12,2.12,0,0,1,224.4,43.41Zm4.78.12V41.37c-2.6.32-3.49,1-3.49,2s.61,1.24,1.37,1.24A3.16,3.16,0,0,0,229.18,43.53Z" />
                <path
                    d="M232.09,44.54l.65-.86a3.51,3.51,0,0,0,2.3.92c1,0,1.52-.55,1.52-1.21s-.92-1.16-1.78-1.48c-1.09-.39-2.31-.93-2.31-2.24s1-2.21,2.68-2.21a3.94,3.94,0,0,1,2.42.87l-.63.85a2.93,2.93,0,0,0-1.78-.7c-1,0-1.43.53-1.43,1.12s.85,1,1.73,1.35c1.12.42,2.37.88,2.37,2.36,0,1.26-1,2.31-2.84,2.31A4.68,4.68,0,0,1,232.09,44.54Z" />
                <path
                    d="M239.08,41.55c0-2.53,1.7-4.09,3.49-4.09,2,0,3.11,1.42,3.11,3.65a4,4,0,0,1-.06.75h-5.24A2.57,2.57,0,0,0,243,44.57,3.42,3.42,0,0,0,244.9,44l.47.87a4.61,4.61,0,0,1-2.57.8C240.73,45.62,239.08,44.11,239.08,41.55Zm5.44-.64c0-1.56-.71-2.4-1.92-2.4a2.38,2.38,0,0,0-2.23,2.4Z" />
                <path
                    d="M250.2,46.93a2.19,2.19,0,0,1,1.14-1.76V45.1a1.44,1.44,0,0,1-.69-1.27,1.88,1.88,0,0,1,.85-1.45v-.06a2.73,2.73,0,0,1-1-2.09,2.77,2.77,0,0,1,2.92-2.77,3.1,3.1,0,0,1,1.1.19h2.72v1h-1.6a2.25,2.25,0,0,1,.63,1.61A2.66,2.66,0,0,1,253.41,43a2.83,2.83,0,0,1-1.16-.26,1.12,1.12,0,0,0-.49.92c0,.49.32.84,1.36.84h1.52c1.81,0,2.72.57,2.72,1.86,0,1.45-1.54,2.69-3.94,2.69C251.52,49,250.2,48.27,250.2,46.93Zm5.86-.41c0-.72-.54-1-1.56-1h-1.35a4.71,4.71,0,0,1-1-.11,1.61,1.61,0,0,0-.79,1.3c0,.84.84,1.36,2.26,1.36S256.06,47.33,256.06,46.52Zm-1-6.29a1.66,1.66,0,1,0-3.31,0,1.67,1.67,0,1,0,3.31,0Z" />
                <path
                    d="M258.62,35.2a.91.91,0,0,1,1.81,0,.91.91,0,0,1-1.81,0Zm.24,2.45h1.31v7.78h-1.31Z" />
                <path
                    d="M261.67,37.65H263l1.47,4.42c.23.76.48,1.55.72,2.3h.06c.23-.75.49-1.54.72-2.3l1.47-4.42h1.29L266,45.43h-1.53Z" />
                <path
                    d="M269.62,41.55c0-2.53,1.71-4.09,3.5-4.09,2,0,3.1,1.42,3.1,3.65a4,4,0,0,1-.06.75h-5.24a2.59,2.59,0,0,0,2.59,2.71,3.39,3.39,0,0,0,1.93-.62l.48.87a4.66,4.66,0,0,1-2.57.8C271.27,45.62,269.62,44.11,269.62,41.55Zm5.44-.64c0-1.56-.7-2.4-1.92-2.4a2.39,2.39,0,0,0-2.23,2.4Z" />
                <path
                    d="M280.85,43.41c0-1.69,1.46-2.54,4.78-2.9,0-1-.33-2-1.6-2a4.25,4.25,0,0,0-2.32.84l-.52-.91a5.69,5.69,0,0,1,3.05-1c1.9,0,2.71,1.26,2.71,3.2v4.77h-1.09l-.11-.93h0a4.14,4.14,0,0,1-2.58,1.12A2.12,2.12,0,0,1,280.85,43.41Zm4.78.12V41.37c-2.61.32-3.49,1-3.49,2s.6,1.24,1.37,1.24A3.16,3.16,0,0,0,285.63,43.53Z" />
                <path
                    d="M292.66,36l-.09-2.26h2.53L295,36l-.49,3.38h-1.37Zm4,0-.08-2.26h2.52L299,36l-.5,3.38h-1.36Z" />
                <path
                    d="M300.84,44l1.44-1.72A4.37,4.37,0,0,0,305,43.47c1,0,1.55-.41,1.55-1.07s-.63-.92-1.59-1.32l-1.44-.61a3.24,3.24,0,0,1-2.24-3c0-1.84,1.64-3.3,4-3.3a5.11,5.11,0,0,1,3.56,1.45l-1.26,1.58a3.62,3.62,0,0,0-2.3-.87c-.87,0-1.42.36-1.42,1s.73.93,1.7,1.32l1.41.57a3.06,3.06,0,0,1,2.2,3c0,1.84-1.54,3.44-4.18,3.44A6.08,6.08,0,0,1,300.84,44Z" />
                <path
                    d="M310.66,42.36V39h-1.15V37.09L310.8,37l.29-2.24h2.07V37h2v2h-2v3.37c0,1,.43,1.34,1.09,1.34a2.47,2.47,0,0,0,.8-.16l.4,1.82a6,6,0,0,1-1.88.31C311.49,45.64,310.66,44.32,310.66,42.36Z" />
                <path
                    d="M316.11,43.09c0-1.78,1.41-2.74,4.74-3.09a1.17,1.17,0,0,0-1.33-1.22,4.67,4.67,0,0,0-2.23.76l-.89-1.64a6.94,6.94,0,0,1,3.6-1.11c2.16,0,3.35,1.24,3.35,3.82v4.82h-2l-.17-.86h-.07a3.71,3.71,0,0,1-2.45,1.07A2.43,2.43,0,0,1,316.11,43.09Zm4.74-.11V41.51c-1.77.24-2.35.75-2.35,1.38s.37.81,1,.81A1.89,1.89,0,0,0,320.85,43Z" />
                <path
                    d="M325.45,37h2l.18,1.47h.06a2.88,2.88,0,0,1,2.4-1.68,2.52,2.52,0,0,1,1,.17l-.42,2.16a3.62,3.62,0,0,0-.91-.14A2.09,2.09,0,0,0,328,40.54v4.89h-2.5Z" />
                <path
                    d="M332.49,36l-.08-2.26h2.52L334.84,36l-.49,3.38H333Zm4,0-.08-2.26H339L338.87,36l-.49,3.38H337Z" />
                <path
                    d="M344.52,35.2a.91.91,0,0,1,1.82,0,.91.91,0,0,1-1.82,0Zm.24,2.45h1.32v7.78h-1.32Z" />
                <path
                    d="M348.7,37.65h1.08l.11,1.12h.05a3.7,3.7,0,0,1,2.61-1.31c1.64,0,2.37,1.06,2.37,3v4.93h-1.31V40.67c0-1.45-.44-2.07-1.47-2.07A3,3,0,0,0,350,39.8v5.63H348.7Z" />
                <path
                    d="M360.88,43V38.72h-1.16v-1l1.22-.08.16-2.18h1.1v2.18h2.1v1.07h-2.1v4.33c0,1,.3,1.5,1.2,1.5a2.57,2.57,0,0,0,.89-.21l.25,1a5,5,0,0,1-1.44.28C361.44,45.62,360.88,44.57,360.88,43Z" />
                <path
                    d="M366.05,34h1.32v3.12l-.05,1.6a3.69,3.69,0,0,1,2.59-1.29c1.64,0,2.37,1.06,2.37,3v4.93H371V40.67c0-1.45-.44-2.07-1.47-2.07a3,3,0,0,0-2.13,1.2v5.63h-1.32Z" />
                <path
                    d="M374.18,41.55c0-2.53,1.71-4.09,3.5-4.09,2,0,3.1,1.42,3.1,3.65a4,4,0,0,1-.06.75h-5.24a2.59,2.59,0,0,0,2.59,2.71A3.39,3.39,0,0,0,380,44l.48.87a4.64,4.64,0,0,1-2.57.8C375.83,45.62,374.18,44.11,374.18,41.55Zm5.44-.64c0-1.56-.7-2.4-1.92-2.4a2.39,2.39,0,0,0-2.23,2.4Z" />
                <path
                    d="M386.13,43V38.72H385v-1l1.22-.08.15-2.18h1.1v2.18h2.11v1.07h-2.11v4.33c0,1,.31,1.5,1.21,1.5a2.46,2.46,0,0,0,.88-.21l.26,1a5,5,0,0,1-1.45.28C386.69,45.62,386.13,44.57,386.13,43Z" />
                <path
                    d="M390.5,41.55c0-2.6,1.7-4.09,3.61-4.09s3.6,1.49,3.6,4.09-1.7,4.07-3.6,4.07S390.5,44.13,390.5,41.55Zm5.85,0c0-1.78-.9-3-2.24-3s-2.25,1.22-2.25,3,.91,3,2.25,3S396.35,43.33,396.35,41.55Z" />
                <path
                    d="M399.75,37.65h1.09l.11.9h0a4.08,4.08,0,0,1,2.48-1.09c2,0,3.09,1.56,3.09,4,0,2.65-1.59,4.2-3.37,4.2a3.57,3.57,0,0,1-2.16-.9l0,1.36v2.63h-1.32Zm5.45,3.79c0-1.72-.59-2.87-2.05-2.87a3.18,3.18,0,0,0-2.08,1.06v4.08a3,3,0,0,0,1.89.81C404.25,44.52,405.2,43.36,405.2,41.44Z" />
                <path
                    d="M411.77,37.65h1.09l.11,1.42h0a2.68,2.68,0,0,1,2.21-1.61,1.73,1.73,0,0,1,.83.16l-.24,1.15a2.33,2.33,0,0,0-.76-.12c-.66,0-1.44.47-2,1.79v5h-1.31Z" />
                <path
                    d="M417.08,35.2a.91.91,0,0,1,1.82,0,.91.91,0,0,1-1.82,0Zm.24,2.45h1.32v7.78h-1.32Z" />
                <path
                    d="M420.66,46.93a2.19,2.19,0,0,1,1.14-1.76V45.1a1.44,1.44,0,0,1-.69-1.27,1.86,1.86,0,0,1,.86-1.45v-.06a2.7,2.7,0,0,1-1-2.09,2.76,2.76,0,0,1,2.92-2.77,3.19,3.19,0,0,1,1.1.19h2.71v1h-1.6a2.26,2.26,0,0,1,.64,1.61A2.66,2.66,0,0,1,423.88,43a2.76,2.76,0,0,1-1.16-.26,1.13,1.13,0,0,0-.5.92c0,.49.32.84,1.37.84h1.51c1.81,0,2.72.57,2.72,1.86,0,1.45-1.53,2.69-3.93,2.69C422,49,420.66,48.27,420.66,46.93Zm5.87-.41c0-.72-.55-1-1.57-1h-1.34a4.58,4.58,0,0,1-1-.11,1.6,1.6,0,0,0-.8,1.3c0,.84.85,1.36,2.26,1.36S426.53,47.33,426.53,46.52Zm-1-6.29a1.66,1.66,0,1,0-3.31,0,1.67,1.67,0,1,0,3.31,0Z" />
                <path
                    d="M429.32,34h1.32v3.12l-.05,1.6a3.65,3.65,0,0,1,2.58-1.29c1.64,0,2.38,1.06,2.38,3v4.93h-1.32V40.67c0-1.45-.44-2.07-1.47-2.07a3,3,0,0,0-2.12,1.2v5.63h-1.32Z" />
                <path
                    d="M438.25,43V38.72H437.1v-1l1.21-.08.16-2.18h1.1v2.18h2.11v1.07h-2.11v4.33c0,1,.31,1.5,1.2,1.5a2.47,2.47,0,0,0,.89-.21l.25,1a4.84,4.84,0,0,1-1.44.28C438.81,45.62,438.25,44.57,438.25,43Z" />
                <path
                    d="M446.05,41.55a3.78,3.78,0,0,1,3.75-4.09,3.25,3.25,0,0,1,2.27.91l-.67.87a2.24,2.24,0,0,0-1.54-.69c-1.41,0-2.45,1.22-2.45,3s1,3,2.41,3a2.83,2.83,0,0,0,1.83-.78l.57.88a3.75,3.75,0,0,1-2.52,1C447.63,45.62,446.05,44.13,446.05,41.55Z" />
                <path
                    d="M453,41.55c0-2.6,1.7-4.09,3.61-4.09s3.6,1.49,3.6,4.09-1.69,4.07-3.6,4.07S453,44.13,453,41.55Zm5.85,0c0-1.78-.9-3-2.24-3s-2.25,1.22-2.25,3,.91,3,2.25,3S458.86,43.33,458.86,41.55Z" />
                <path
                    d="M462.26,37.65h1.09l.11,1.42h.05a2.66,2.66,0,0,1,2.21-1.61,1.79,1.79,0,0,1,.83.16l-.25,1.15a2.23,2.23,0,0,0-.75-.12c-.66,0-1.44.47-2,1.79v5h-1.32Z" />
                <path
                    d="M467.81,37.65h1.09l.11,1.12h.05a3.7,3.7,0,0,1,2.61-1.31c1.64,0,2.37,1.06,2.37,3v4.93h-1.31V40.67c0-1.45-.44-2.07-1.47-2.07a3,3,0,0,0-2.13,1.2v5.63h-1.32Z" />
                <path
                    d="M476,41.55c0-2.53,1.71-4.09,3.5-4.09,2,0,3.1,1.42,3.1,3.65a4,4,0,0,1-.06.75h-5.24a2.58,2.58,0,0,0,2.59,2.71,3.39,3.39,0,0,0,1.93-.62l.47.87a4.6,4.6,0,0,1-2.56.8C477.64,45.62,476,44.11,476,41.55Zm5.44-.64c0-1.56-.7-2.4-1.92-2.4a2.39,2.39,0,0,0-2.23,2.4Z" />
                <path
                    d="M484.5,37.65h1.09l.11,1.42h.05A2.66,2.66,0,0,1,488,37.46a1.79,1.79,0,0,1,.83.16l-.25,1.15a2.27,2.27,0,0,0-.75-.12c-.66,0-1.44.47-2,1.79v5H484.5Z" />
                <path d="M488.87,44.63a1,1,0,1,1,.95,1A1,1,0,0,1,488.87,44.63Z" />
                <path
                    d="M498.15,41.36,495,34.93h1.43l1.36,3c.34.78.65,1.51,1,2.29h.06c.36-.78.72-1.51,1.05-2.29l1.35-3h1.39l-3.16,6.43v4.07h-1.34Z" />
                <path
                    d="M502.71,41.55c0-2.6,1.7-4.09,3.6-4.09s3.61,1.49,3.61,4.09-1.7,4.07-3.61,4.07S502.71,44.13,502.71,41.55Zm5.85,0c0-1.78-.91-3-2.25-3s-2.24,1.22-2.24,3,.91,3,2.24,3S508.56,43.33,508.56,41.55Z" />
                <path
                    d="M511.85,42.58V37.65h1.32v4.76c0,1.45.44,2.07,1.47,2.07.79,0,1.35-.39,2.08-1.31V37.65H518v7.78H517l-.11-1.22h0a3.32,3.32,0,0,1-2.57,1.41C512.59,45.62,511.85,44.56,511.85,42.58Z" />
                <path
                    d="M520.66,37.65h1.09l.11,1.42h0a2.66,2.66,0,0,1,2.21-1.61,1.79,1.79,0,0,1,.83.16l-.25,1.15a2.27,2.27,0,0,0-.75-.12c-.66,0-1.44.47-2,1.79v5h-1.32Z" />
                <path
                    d="M528.55,44.54l.65-.86a3.53,3.53,0,0,0,2.3.92c1,0,1.53-.55,1.53-1.21s-.92-1.16-1.78-1.48c-1.09-.39-2.32-.93-2.32-2.24s1-2.21,2.68-2.21a3.92,3.92,0,0,1,2.42.87l-.63.85a2.91,2.91,0,0,0-1.77-.7c-1,0-1.44.53-1.44,1.12s.85,1,1.73,1.35c1.12.42,2.37.88,2.37,2.36,0,1.26-1,2.31-2.83,2.31A4.69,4.69,0,0,1,528.55,44.54Z" />
                <path
                    d="M536,42.58V37.65h1.32v4.76c0,1.45.44,2.07,1.47,2.07.79,0,1.35-.39,2.08-1.31V37.65h1.32v7.78h-1.09L541,44.21h0a3.32,3.32,0,0,1-2.57,1.41C536.75,45.62,536,44.56,536,42.58Z" />
                <path
                    d="M544.82,37.65h1.09l.11.9h.05a4,4,0,0,1,2.48-1.09c2,0,3.08,1.56,3.08,4,0,2.65-1.59,4.2-3.37,4.2a3.57,3.57,0,0,1-2.16-.9l0,1.36v2.63h-1.32Zm5.45,3.79c0-1.72-.59-2.87-2-2.87a3.2,3.2,0,0,0-2.08,1.06v4.08a3,3,0,0,0,1.89.81C549.32,44.52,550.27,43.36,550.27,41.44Z" />
                <path
                    d="M553.7,37.65h1.09l.11.9H555a4.06,4.06,0,0,1,2.48-1.09c2,0,3.08,1.56,3.08,4,0,2.65-1.59,4.2-3.37,4.2a3.57,3.57,0,0,1-2.16-.9l0,1.36v2.63H553.7Zm5.45,3.79c0-1.72-.59-2.87-2-2.87A3.2,3.2,0,0,0,555,39.63v4.08a3,3,0,0,0,1.89.81C558.2,44.52,559.15,43.36,559.15,41.44Z" />
                <path
                    d="M562,41.55c0-2.6,1.7-4.09,3.61-4.09s3.61,1.49,3.61,4.09-1.7,4.07-3.61,4.07S562,44.13,562,41.55Zm5.86,0c0-1.78-.91-3-2.25-3s-2.24,1.22-2.24,3,.9,3,2.24,3S567.86,43.33,567.86,41.55Z" />
                <path
                    d="M571.25,37.65h1.09l.11,1.42h0a2.66,2.66,0,0,1,2.21-1.61,1.76,1.76,0,0,1,.83.16l-.24,1.15a2.33,2.33,0,0,0-.76-.12c-.66,0-1.44.47-2,1.79v5h-1.32Z" />
                <path
                    d="M577,43V38.72h-1.16v-1l1.22-.08.15-2.18h1.1v2.18h2.11v1.07h-2.11v4.33c0,1,.31,1.5,1.21,1.5a2.46,2.46,0,0,0,.88-.21l.26,1a5,5,0,0,1-1.45.28C577.6,45.62,577,44.57,577,43Z" />
                <path
                    d="M585.17,35.2a.91.91,0,1,1,.91.85A.86.86,0,0,1,585.17,35.2Zm.24,2.45h1.32v7.78h-1.32Z" />
                <path
                    d="M588.49,44.54l.65-.86a3.51,3.51,0,0,0,2.29.92c1,0,1.53-.55,1.53-1.21s-.91-1.16-1.78-1.48c-1.09-.39-2.32-.93-2.32-2.24s1-2.21,2.69-2.21a3.94,3.94,0,0,1,2.42.87l-.63.85a2.93,2.93,0,0,0-1.78-.7c-1,0-1.43.53-1.43,1.12s.84,1,1.73,1.35c1.12.42,2.37.88,2.37,2.36,0,1.26-1,2.31-2.84,2.31A4.68,4.68,0,0,1,588.49,44.54Z" />
                <path
                    d="M599.25,37.65h1.09l.11,1.13h0a3.43,3.43,0,0,1,2.42-1.32,2.06,2.06,0,0,1,2.15,1.48,3.69,3.69,0,0,1,2.56-1.48c1.6,0,2.37,1.06,2.37,3v4.93h-1.32V40.67c0-1.45-.46-2.07-1.44-2.07a2.85,2.85,0,0,0-2,1.2v5.63H604V40.67c0-1.45-.46-2.07-1.45-2.07a2.91,2.91,0,0,0-1.95,1.2v5.63h-1.32Z" />
                <path
                    d="M611.74,48.62l.26-1a2.06,2.06,0,0,0,.59.11c.88,0,1.43-.7,1.75-1.67l.18-.57-3.12-7.8h1.35L614.34,42c.25.67.51,1.47.76,2.19h.06c.23-.71.45-1.5.66-2.19l1.39-4.31h1.29l-2.94,8.42c-.55,1.55-1.35,2.71-2.91,2.71A2.43,2.43,0,0,1,611.74,48.62Z" />
                <path
                    d="M624.41,44.63h0l-.13.8h-1V34h1.32v3.12l0,1.39a4,4,0,0,1,2.45-1.08c2,0,3.09,1.56,3.09,4,0,2.65-1.59,4.2-3.37,4.2A3.48,3.48,0,0,1,624.41,44.63Zm4.23-3.19c0-1.72-.59-2.87-2-2.87a3.14,3.14,0,0,0-2.08,1.06v4.08a3,3,0,0,0,1.89.81C627.69,44.52,628.64,43.36,628.64,41.44Z" />
                <path
                    d="M631.8,35.2a.91.91,0,0,1,1.82,0,.91.91,0,0,1-1.82,0Zm.24,2.45h1.32v7.78H632Z" />
                <path
                    d="M635.38,46.93a2.19,2.19,0,0,1,1.14-1.76V45.1a1.44,1.44,0,0,1-.69-1.27,1.88,1.88,0,0,1,.85-1.45v-.06a2.73,2.73,0,0,1-1-2.09,2.76,2.76,0,0,1,2.92-2.77,3.19,3.19,0,0,1,1.1.19h2.71v1h-1.6a2.26,2.26,0,0,1,.64,1.61A2.66,2.66,0,0,1,638.6,43a2.76,2.76,0,0,1-1.16-.26,1.13,1.13,0,0,0-.5.92c0,.49.32.84,1.36.84h1.52c1.81,0,2.72.57,2.72,1.86,0,1.45-1.53,2.69-3.94,2.69C636.7,49,635.38,48.27,635.38,46.93Zm5.87-.41c0-.72-.55-1-1.57-1h-1.34a4.58,4.58,0,0,1-1-.11,1.6,1.6,0,0,0-.8,1.3c0,.84.85,1.36,2.26,1.36S641.25,47.33,641.25,46.52Zm-1-6.29a1.66,1.66,0,1,0-3.31,0,1.67,1.67,0,1,0,3.31,0Z" />
                <path
                    d="M643.45,46.93a2.16,2.16,0,0,1,1.14-1.76V45.1a1.43,1.43,0,0,1-.7-1.27,1.89,1.89,0,0,1,.86-1.45v-.06a2.7,2.7,0,0,1-1-2.09,2.76,2.76,0,0,1,2.92-2.77,3.15,3.15,0,0,1,1.1.19h2.71v1h-1.59a2.3,2.3,0,0,1,.63,1.61A2.66,2.66,0,0,1,646.66,43a2.76,2.76,0,0,1-1.16-.26,1.12,1.12,0,0,0-.49.92c0,.49.31.84,1.36.84h1.51c1.81,0,2.72.57,2.72,1.86,0,1.45-1.53,2.69-3.93,2.69C644.76,49,643.45,48.27,643.45,46.93Zm5.86-.41c0-.72-.54-1-1.57-1H646.4a4.58,4.58,0,0,1-1-.11,1.59,1.59,0,0,0-.79,1.3c0,.84.84,1.36,2.25,1.36S649.31,47.33,649.31,46.52Zm-1-6.29a1.66,1.66,0,1,0-3.3,0,1.66,1.66,0,1,0,3.3,0Z" />
                <path
                    d="M651.3,41.55c0-2.53,1.71-4.09,3.5-4.09,2,0,3.1,1.42,3.1,3.65a4,4,0,0,1-.06.75H652.6a2.58,2.58,0,0,0,2.59,2.71,3.39,3.39,0,0,0,1.93-.62l.47.87a4.6,4.6,0,0,1-2.56.8C653,45.62,651.3,44.11,651.3,41.55Zm5.44-.64c0-1.56-.7-2.4-1.92-2.4a2.39,2.39,0,0,0-2.23,2.4Z" />
                <path
                    d="M659,44.54l.65-.86a3.53,3.53,0,0,0,2.3.92c1,0,1.53-.55,1.53-1.21s-.92-1.16-1.78-1.48c-1.09-.39-2.32-.93-2.32-2.24s1-2.21,2.68-2.21a3.92,3.92,0,0,1,2.42.87l-.63.85a2.93,2.93,0,0,0-1.77-.7c-1,0-1.44.53-1.44,1.12s.85,1,1.73,1.35c1.12.42,2.37.88,2.37,2.36,0,1.26-1,2.31-2.84,2.31A4.68,4.68,0,0,1,659,44.54Z" />
                <path
                    d="M666.43,43V38.72h-1.16v-1l1.22-.08.15-2.18h1.1v2.18h2.11v1.07h-2.11v4.33c0,1,.31,1.5,1.21,1.5a2.46,2.46,0,0,0,.88-.21l.26,1a5,5,0,0,1-1.45.28C667,45.62,666.43,44.57,666.43,43Z" />
                <path
                    d="M674.23,41.55c0-2.53,1.7-4.09,3.49-4.09,2,0,3.11,1.42,3.11,3.65a4,4,0,0,1-.06.75h-5.24a2.57,2.57,0,0,0,2.58,2.71,3.42,3.42,0,0,0,1.94-.62l.47.87a4.61,4.61,0,0,1-2.57.8C675.88,45.62,674.23,44.11,674.23,41.55Zm5.44-.64c0-1.56-.7-2.4-1.92-2.4a2.38,2.38,0,0,0-2.23,2.4Z" />
                <path
                    d="M682.74,37.65h1.09l.11,1.12h0a3.72,3.72,0,0,1,2.61-1.31c1.64,0,2.38,1.06,2.38,3v4.93h-1.32V40.67c0-1.45-.43-2.07-1.46-2.07a3,3,0,0,0-2.13,1.2v5.63h-1.32Z" />
                <path
                    d="M690.91,41.55a3.78,3.78,0,0,1,3.75-4.09,3.29,3.29,0,0,1,2.28.91l-.68.87a2.24,2.24,0,0,0-1.54-.69c-1.41,0-2.44,1.22-2.44,3s1,3,2.4,3a2.83,2.83,0,0,0,1.83-.78l.57.88a3.75,3.75,0,0,1-2.52,1C692.49,45.62,690.91,44.13,690.91,41.55Z" />
                <path
                    d="M697.88,41.55c0-2.6,1.69-4.09,3.6-4.09s3.61,1.49,3.61,4.09-1.7,4.07-3.61,4.07S697.88,44.13,697.88,41.55Zm5.84,0c0-1.78-.9-3-2.24-3s-2.25,1.22-2.25,3,.91,3,2.25,3S703.72,43.33,703.72,41.55Z" />
                <path
                    d="M707,42.58V37.65h1.32v4.76c0,1.45.44,2.07,1.46,2.07.8,0,1.35-.39,2.09-1.31V37.65h1.32v7.78h-1.09L712,44.21h0a3.29,3.29,0,0,1-2.56,1.41C707.76,45.62,707,44.56,707,42.58Z" />
                <path
                    d="M715.83,37.65h1.09l.11,1.42h0a2.68,2.68,0,0,1,2.21-1.61,1.8,1.8,0,0,1,.84.16l-.25,1.15a2.29,2.29,0,0,0-.76-.12c-.65,0-1.44.47-2,1.79v5h-1.32Z" />
                <path
                    d="M720.52,43.41c0-1.69,1.46-2.54,4.77-2.9,0-1-.33-2-1.6-2a4.28,4.28,0,0,0-2.32.84l-.52-.91a5.73,5.73,0,0,1,3.06-1c1.9,0,2.7,1.26,2.7,3.2v4.77h-1.09l-.11-.93h0a4.11,4.11,0,0,1-2.57,1.12A2.11,2.11,0,0,1,720.52,43.41Zm4.77.12V41.37c-2.6.32-3.49,1-3.49,2s.6,1.24,1.37,1.24A3.16,3.16,0,0,0,725.29,43.53Z" />
                <path
                    d="M728.47,46.93a2.16,2.16,0,0,1,1.14-1.76V45.1a1.44,1.44,0,0,1-.69-1.27,1.88,1.88,0,0,1,.85-1.45v-.06a2.73,2.73,0,0,1-1-2.09,2.77,2.77,0,0,1,2.92-2.77,3.1,3.1,0,0,1,1.1.19h2.72v1h-1.6a2.25,2.25,0,0,1,.63,1.61A2.66,2.66,0,0,1,731.68,43a2.83,2.83,0,0,1-1.16-.26,1.12,1.12,0,0,0-.49.92c0,.49.32.84,1.36.84h1.52c1.81,0,2.72.57,2.72,1.86,0,1.45-1.54,2.69-3.94,2.69C729.79,49,728.47,48.27,728.47,46.93Zm5.86-.41c0-.72-.54-1-1.56-1h-1.35a4.71,4.71,0,0,1-1-.11,1.61,1.61,0,0,0-.79,1.3c0,.84.84,1.36,2.26,1.36S734.33,47.33,734.33,46.52Zm-1-6.29a1.66,1.66,0,1,0-3.31,0,1.67,1.67,0,1,0,3.31,0Z" />
                <path
                    d="M736.32,41.55c0-2.53,1.71-4.09,3.5-4.09,2,0,3.11,1.42,3.11,3.65a5.06,5.06,0,0,1-.06.75h-5.24a2.57,2.57,0,0,0,2.58,2.71,3.42,3.42,0,0,0,1.94-.62l.47.87a4.61,4.61,0,0,1-2.57.8C738,45.62,736.32,44.11,736.32,41.55Zm5.44-.64c0-1.56-.7-2.4-1.92-2.4a2.39,2.39,0,0,0-2.23,2.4Z" />
                <path
                    d="M744.84,37.65h1.08l.12,1.13h0a3.43,3.43,0,0,1,2.42-1.32,2.06,2.06,0,0,1,2.15,1.48,3.69,3.69,0,0,1,2.57-1.48c1.59,0,2.36,1.06,2.36,3v4.93h-1.31V40.67c0-1.45-.46-2.07-1.45-2.07a2.87,2.87,0,0,0-2,1.2v5.63h-1.32V40.67c0-1.45-.46-2.07-1.45-2.07a2.91,2.91,0,0,0-2,1.2v5.63h-1.31Z" />
                <path
                    d="M757.52,41.55c0-2.53,1.71-4.09,3.5-4.09,2,0,3.11,1.42,3.11,3.65a3.91,3.91,0,0,1-.07.75h-5.24a2.59,2.59,0,0,0,2.59,2.71,3.42,3.42,0,0,0,1.94-.62l.47.87a4.64,4.64,0,0,1-2.57.8C759.17,45.62,757.52,44.11,757.52,41.55Zm5.44-.64c0-1.56-.7-2.4-1.92-2.4a2.39,2.39,0,0,0-2.23,2.4Z" />
                <path
                    d="M766,37.65h1.08l.11,1.12h0a3.7,3.7,0,0,1,2.61-1.31c1.64,0,2.37,1.06,2.37,3v4.93H771V40.67c0-1.45-.44-2.07-1.47-2.07a3,3,0,0,0-2.13,1.2v5.63H766Z" />
                <path
                    d="M775,43V38.72h-1.16v-1l1.22-.08.16-2.18h1.1v2.18h2.1v1.07h-2.1v4.33c0,1,.3,1.5,1.2,1.5a2.57,2.57,0,0,0,.89-.21l.25,1a5,5,0,0,1-1.44.28C775.58,45.62,775,44.57,775,43Z" />
                <path
                    d="M780.24,44.63a1,1,0,1,1,1.91,0,1,1,0,1,1-1.91,0Zm.32-8.42,0-1.5h1.34l0,1.5-.18,6h-.9Z" />
                <g id="Star-Hand">
                    <g class="cls-5">
                        <path class="cls-6"
                            d="M46.29,27.62c-.44-2.19-6.18-20.37-7.39-23.43a4.1,4.1,0,0,0-4.28-2.71,17.82,17.82,0,0,0-3.07.35C28.42,2.38,13.78,7,11,8a4.4,4.4,0,0,0-2.75,2.33c-.82,1.85-.09,4.12.41,5.3.31.72,1.32,3.88,2.5,7.54,1.8,5.62,4,12.61,4.69,13.73a3.06,3.06,0,0,0,2.91,1.76h0a9.68,9.68,0,0,0,2.2-.31c1.14-.26,5-1.21,9.25-2.29.23.73.46,1.49.71,2.26a11.83,11.83,0,0,0-2.52,1.31,6.39,6.39,0,0,0-1.93,2.4c-.35.6-.78,1.35-1.43,2.31-1.24,1.86-2.25,3.29-2.76,4a1,1,0,0,0-.55-.24h0a4.24,4.24,0,0,0-2.15,1.15,1.45,1.45,0,0,0-.83-.47.25.25,0,0,0-.12,0c-1.23.35-26.29,11.25-27.36,11.72a.15.15,0,0,0-.09.18s.51,2.81,1.18,5.56C-6.28,72-5.57,72-5.31,72a.42.42,0,0,0,.21-.06c.39-.22,3.39-1.49,7.19-3.09,15-6.36,23.2-9.94,23.44-10.66a.22.22,0,0,0,0-.18s-.11-.19-.25-.43c1.08-.46,2.05-1,2.07-1.34a3.68,3.68,0,0,0-.41-1,29.26,29.26,0,0,1,3.74-1.08,25.37,25.37,0,0,0,4.73-1.71c.5,1.5.86,2.52,1,2.8a1.33,1.33,0,0,0,1.23.82,2.25,2.25,0,0,0,1.56-.75,1.19,1.19,0,0,0,.37-.89c0-.18-.36-1.34-.9-3.1.61-.26,1.05-.61,1.08-1A2.36,2.36,0,0,0,39,48.57,3,3,0,0,0,39.56,47a2.12,2.12,0,0,0-.84-1.42A3,3,0,0,0,39.81,43,2.46,2.46,0,0,0,38.1,41.3a1.28,1.28,0,0,0,.18-.62A2.57,2.57,0,0,0,37.46,39a1.47,1.47,0,0,0-1-.3,6,6,0,0,0-1.11.12,8,8,0,0,0-.83-.73c-.31-1-.62-2-.92-2.9,4.95-1.28,9.61-2.52,10.39-2.84A4.12,4.12,0,0,0,46.29,27.62Z" />
                        <path class="cls-7"
                            d="M28.3,34.68,29,36.9a14.73,14.73,0,0,1,1.89-.56,1.42,1.42,0,0,1,1,.19L31,34Z" />
                        <path class="cls-7"
                            d="M36.14,50.1a10.19,10.19,0,0,1-1.81.44L33.5,51c.5,1.5.86,2.53,1,2.8a1,1,0,0,0,.93.63,1.92,1.92,0,0,0,1.32-.65.87.87,0,0,0,.28-.62C37,53,36.67,51.84,36.14,50.1Z" />
                        <path class="cls-8"
                            d="M36.49,47.46c-1,.35-4.39,1.28-4.91,1.42a1.39,1.39,0,0,0,.08,1c.2.37.62.54,1.26.5,2-.14,4.23-.74,4.28-1.46A2.06,2.06,0,0,0,36.49,47.46Z" />
                        <path class="cls-8"
                            d="M35.63,40.24l-1,.49a1.51,1.51,0,0,1-.82.77,2.21,2.21,0,0,1-1.1.09l-2.25,1c-.11.07-1,.72-.76,1.52a2.09,2.09,0,0,0,1.23,1.22c1.46-.26,4.91-1.08,5.3-1.18.19-.16,1.33-1.22,1.1-2.36A2.27,2.27,0,0,0,35.63,40.24Z" />
                        <path class="cls-8"
                            d="M36.23,44.47c-.53.13-3.84.91-5.27,1.17-.18.19-1,1.18-.7,2.11a1.13,1.13,0,0,0,1.15.8h.09c.53-.14,4-1.11,4.93-1.43a2.82,2.82,0,0,0,.6-1.42A2,2,0,0,0,36.23,44.47Z" />
                        <path class="cls-8"
                            d="M34.22,37.74a5,5,0,0,0-.85.08h0a4.88,4.88,0,0,1,1.3,2.5l.84-.4a.87.87,0,0,0,.24-.57A2.25,2.25,0,0,0,35,37.94,1.19,1.19,0,0,0,34.22,37.74Z" />
                        <path class="cls-9"
                            d="M32.15,41.46a2.22,2.22,0,0,1-1.22-.92c-.28-.36-.44-.56-.9-.41a1.62,1.62,0,0,0-.68.73,2.52,2.52,0,0,0,1,1.39Z" />
                        <path class="cls-8"
                            d="M31,36.66a13.79,13.79,0,0,0-4.59,1.93,6,6,0,0,0-1.84,2.3c-.35.61-.78,1.36-1.44,2.33-1.25,1.88-2.27,3.33-2.79,4l.13.13.15-.07-.12.1h0a35.76,35.76,0,0,1,4.11,6.17,26.3,26.3,0,0,1,3.81-1.11,25.23,25.23,0,0,0,5-1.82l-.4,0h-.21a1.36,1.36,0,0,1-1.47-.93,1.88,1.88,0,0,1,0-.91,1.42,1.42,0,0,1-1.28-1,2.48,2.48,0,0,1,.64-2.32,2.3,2.3,0,0,1-1.26-1.36,1.74,1.74,0,0,1,.71-1.74,3,3,0,0,1-.91-1.2c-.25.49-.49,1-.69,1.54a7.44,7.44,0,0,1-.73,1.5.18.18,0,0,1-.23,0,.17.17,0,0,1,0-.24,8.12,8.12,0,0,0,.68-1.41c.51-1.23,1.09-2.62,1.78-2.84s1,.15,1.26.52a2.19,2.19,0,0,0,.73.68,2.24,2.24,0,0,0,1.73.17,1.15,1.15,0,0,0,.67-.66C34.48,40.1,34,39,33.13,38S31.46,36.55,31,36.66Z" />
                        <path class="cls-2"
                            d="M19.53,47.14a3.81,3.81,0,0,0-1.93,1c1.68,1.7,4.29,6,5.3,7.76a5.07,5.07,0,0,0,1.91-1.06C24.79,54.36,20.53,47.14,19.53,47.14Z" />
                        <path class="cls-10"
                            d="M16.53,47.82h0c-1.17.34-25.28,10.82-27.2,11.65,1,5.36,2.44,10.86,3.19,10.86l0,0C-7,70.08-4.2,68.88-.24,67.2,7.62,63.88,22.15,57.73,23,56.77,21.3,53.8,17.55,47.82,16.53,47.82Z" />
                        <path class="cls-11"
                            d="M41.62,30.76c-1.61.65-20.21,5.35-23,6a10.19,10.19,0,0,1-2.13.3,2.76,2.76,0,0,1-2.63-1.59c-.62-1.09-2.85-8.07-4.65-13.66-1.18-3.68-2.2-6.84-2.5-7.57-.49-1.14-1.19-3.31-.43-5.05A4.14,4.14,0,0,1,8.89,7C11.69,6,26.29,1.38,29.4.84a16.57,16.57,0,0,1,3-.35,3.78,3.78,0,0,1,4,2.5c1.2,3.06,6.93,21.19,7.37,23.38A3.79,3.79,0,0,1,41.62,30.76Z" />
                        <path class="cls-12"
                            d="M44.09,26.3c-.45-2.19-6.18-20.37-7.4-23.43A4.08,4.08,0,0,0,32.42.16a17.71,17.71,0,0,0-3.07.35C26.22,1.06,11.58,5.72,8.78,6.7A4.42,4.42,0,0,0,6,9c-.81,1.85-.09,4.11.42,5.3.31.72,1.32,3.88,2.49,7.54,1.81,5.62,4.05,12.61,4.7,13.73a3.06,3.06,0,0,0,2.91,1.76h0a10.29,10.29,0,0,0,2.2-.31c1.13-.26,5-1.21,9.24-2.29L28.69,37a12.49,12.49,0,0,0-2.51,1.31,6.52,6.52,0,0,0-1.94,2.41c-.34.6-.77,1.34-1.42,2.31-1.24,1.85-2.25,3.28-2.77,4a.91.91,0,0,0-.54-.24h0A4.24,4.24,0,0,0,17.36,48a1.45,1.45,0,0,0-.83-.47h-.12c-1.23.36-26.29,11.26-27.36,11.72a.16.16,0,0,0-.09.18s.51,2.82,1.18,5.57c1.38,5.69,2.08,5.69,2.35,5.69a.42.42,0,0,0,.21-.06c.39-.22,3.39-1.49,7.18-3.09,15-6.36,23.21-9.94,23.45-10.67a.2.2,0,0,0,0-.17c0-.05-.11-.2-.25-.43,1.08-.46,2.05-1,2.07-1.34a3.68,3.68,0,0,0-.41-1,29.26,29.26,0,0,1,3.74-1.08A25.37,25.37,0,0,0,33.2,51.1c.5,1.5.86,2.52,1,2.8a1.33,1.33,0,0,0,1.23.82A2.22,2.22,0,0,0,37,54a1.16,1.16,0,0,0,.37-.88c0-.18-.37-1.34-.91-3.1.62-.26,1.06-.61,1.09-1a2.36,2.36,0,0,0-.78-1.69,3,3,0,0,0,.61-1.54,2.21,2.21,0,0,0-.84-1.43,3,3,0,0,0,1.09-2.56A2.49,2.49,0,0,0,35.89,40a1,1,0,0,0,.18-.61,2.47,2.47,0,0,0-.82-1.65,1.42,1.42,0,0,0-1-.3,6.18,6.18,0,0,0-1.12.12,6.11,6.11,0,0,0-.82-.73q-.47-1.48-.93-2.91c5-1.27,9.62-2.51,10.39-2.83A4.13,4.13,0,0,0,44.09,26.3Zm-7.9,17.84c-.39.1-3.84.92-5.3,1.18a2.09,2.09,0,0,1-1.23-1.22c-.23-.8.65-1.45.76-1.52l2.25-1a2.21,2.21,0,0,0,1.1-.09,1.51,1.51,0,0,0,.82-.77l1-.49a2.27,2.27,0,0,1,1.66,1.54C37.52,42.92,36.38,44,36.19,44.14Zm1,4.78c-.05.72-2.26,1.32-4.28,1.46-.64,0-1.06-.13-1.26-.5a1.39,1.39,0,0,1-.08-1c.52-.14,3.92-1.07,4.91-1.42A2.06,2.06,0,0,1,37.2,48.92Zm-1.78,5.47a1,1,0,0,1-.93-.63c-.13-.27-.49-1.3-1-2.8l.83-.42a10.19,10.19,0,0,0,1.81-.44c.53,1.74.86,2.85.88,3a.87.87,0,0,1-.28.62A1.92,1.92,0,0,1,35.42,54.39ZM30.35,42.25a2.52,2.52,0,0,1-1-1.39,1.62,1.62,0,0,1,.68-.73c.46-.15.62,0,.9.41a2.22,2.22,0,0,0,1.22.92Zm6.08,4.88c-.89.32-4.4,1.29-4.93,1.43h-.09a1.13,1.13,0,0,1-1.15-.8c-.34-.93.52-1.92.7-2.11,1.43-.26,4.74-1,5.27-1.17a2,2,0,0,1,.8,1.24A2.82,2.82,0,0,1,36.43,47.13Zm-.92-7.2-.84.4a4.88,4.88,0,0,0-1.3-2.5h0a5,5,0,0,1,.85-.08,1.19,1.19,0,0,1,.8.2,2.25,2.25,0,0,1,.73,1.42A.87.87,0,0,1,35.51,39.93ZM33.13,38c.83,1,1.35,2.06,1.19,2.49a1.15,1.15,0,0,1-.67.66A2.24,2.24,0,0,1,31.92,41a2.19,2.19,0,0,1-.73-.68c-.29-.37-.58-.75-1.26-.52s-1.27,1.61-1.78,2.84a8.12,8.12,0,0,1-.68,1.41.17.17,0,0,0,0,.24.18.18,0,0,0,.23,0,7.44,7.44,0,0,0,.73-1.5c.2-.49.44-1,.69-1.54a3,3,0,0,0,.91,1.2,1.74,1.74,0,0,0-.71,1.74,2.3,2.3,0,0,0,1.26,1.36A2.48,2.48,0,0,0,30,47.87a1.42,1.42,0,0,0,1.28,1,1.88,1.88,0,0,0,0,.91,1.36,1.36,0,0,0,1.47.93h.21l.4,0a25.23,25.23,0,0,1-5,1.82,26.3,26.3,0,0,0-3.81,1.11,35.76,35.76,0,0,0-4.11-6.17h0l.12-.1-.15.07-.13-.13c.52-.71,1.54-2.16,2.79-4,.66-1,1.09-1.72,1.44-2.33a6,6,0,0,1,1.84-2.3A13.79,13.79,0,0,1,31,36.66C31.46,36.55,32.31,37.09,33.13,38ZM22.9,56c-1-1.73-3.62-6.06-5.3-7.76a3.81,3.81,0,0,1,1.93-1c1,0,5.26,7.22,5.28,7.75A5.07,5.07,0,0,1,22.9,56ZM-.24,67.2c-4,1.68-6.81,2.88-7.22,3.11l0,0c-.75,0-2.21-5.5-3.19-10.86,1.92-.83,26-11.31,27.2-11.65h0c1,0,4.77,6,6.47,9C22.15,57.73,7.62,63.88-.24,67.2ZM30.89,36.34A14.73,14.73,0,0,0,29,36.9l-.7-2.22L31,34l.81,2.55A1.42,1.42,0,0,0,30.89,36.34Zm-12.23.39a9.48,9.48,0,0,1-2.12.3h0a2.72,2.72,0,0,1-2.63-1.6c-.63-1.08-2.86-8.06-4.66-13.66-1.18-3.67-2.2-6.83-2.51-7.57-.48-1.14-1.18-3.3-.42-5A4.12,4.12,0,0,1,8.89,7C11.69,6,26.29,1.38,29.4.83a18.32,18.32,0,0,1,3-.34,3.75,3.75,0,0,1,4,2.5c1.21,3.06,6.93,21.19,7.38,23.38a3.8,3.8,0,0,1-2.15,4.39C40,31.42,21.41,36.11,18.66,36.73Z" />
                        <path class="cls-13"
                            d="M20.93,21.38a.67.67,0,0,1,.37.48l1,5.56,3.95-4.05a.7.7,0,0,1,.57-.21l5.62.73-2.64-5a.66.66,0,0,1,0-.61l2.42-5.11-5.58,1a.71.71,0,0,1-.58-.17L22,10.06l-.81,5.6a.66.66,0,0,1-.34.5l-5,2.72Z" />
                        <path class="cls-2"
                            d="M21.25,29a.68.68,0,0,0,.67.56.71.71,0,0,0,.49-.21L27,24.56l6.57.85a.68.68,0,0,0,.65-.29.7.7,0,0,0,0-.71L31.2,18.55l2.84-6a.68.68,0,0,0-.73-1l-6.53,1.13L22,8.17A.69.69,0,0,0,21.26,8a.71.71,0,0,0-.45.55l-.94,6.56-5.82,3.18a.68.68,0,0,0-.36.61.7.7,0,0,0,.38.6L20,22.45Zm-.09-13.3.81-5.6L26.09,14a.71.71,0,0,0,.58.17l5.58-1-2.42,5.11a.66.66,0,0,0,0,.61l2.64,5-5.62-.73a.7.7,0,0,0-.57.21l-3.95,4.05-1-5.56a.67.67,0,0,0-.37-.48l-5.08-2.5,5-2.72A.66.66,0,0,0,21.16,15.66Z" />
                        <path class="cls-14"
                            d="M-6.57,57.68l-4.13,1.79c1,5.36,2.44,10.86,3.19,10.86l0,0C-7,70.08-4.2,68.88-.24,67.2,7.62,63.88,22.15,57.73,23,56.77c-.54-.94-1.28-2.17-2.07-3.43A81.85,81.85,0,0,1-6.57,57.68Z" />
                        <path class="cls-15"
                            d="M22.9,56a5.07,5.07,0,0,0,1.91-1.06,19.48,19.48,0,0,0-1.75-3.23,15.3,15.3,0,0,1-2.17,1C21.73,54,22.46,55.2,22.9,56Z" />
                        <path class="cls-9"
                            d="M28.15,42.66c.51-1.23,1.09-2.62,1.78-2.84s1,.15,1.26.52a2.19,2.19,0,0,0,.73.68,2.6,2.6,0,0,0,1.13.27l-.06,0c-.67-.68-1-1.76-1.92-2.09-1.22-.44-2.35.79-3.07,1.87-.95,1.42-1.92,3.22-1.12,4.73.23.41.57.75.79,1.17.72,1.36-.13,3.14-1.44,4a6.61,6.61,0,0,1-2.68.9c.39.66.75,1.29,1,1.81a26.3,26.3,0,0,1,3.81-1.11,25.23,25.23,0,0,0,5-1.82l-.4,0h-.21a1.36,1.36,0,0,1-1.47-.93,1.88,1.88,0,0,1,0-.91,1.42,1.42,0,0,1-1.28-1,2.48,2.48,0,0,1,.64-2.32,2.3,2.3,0,0,1-1.26-1.36,1.74,1.74,0,0,1,.71-1.74,3,3,0,0,1-.91-1.2c-.25.49-.49,1-.69,1.54a7.44,7.44,0,0,1-.73,1.5.18.18,0,0,1-.23,0,.17.17,0,0,1,0-.24A8.12,8.12,0,0,0,28.15,42.66Z" />
                        <path class="cls-9"
                            d="M32.37,43.82a2.33,2.33,0,0,1-1.32-.42,1,1,0,0,1-.33-.95l-.3.13c-.11.07-1,.72-.76,1.52a2.09,2.09,0,0,0,1.23,1.22c1.46-.26,4.91-1.08,5.3-1.18a4,4,0,0,0,.73-.85A11.71,11.71,0,0,1,32.37,43.82Z" />
                        <path class="cls-9"
                            d="M36.9,46.29a18.18,18.18,0,0,1-3.12.54,3.89,3.89,0,0,1-1.86-.17,1.68,1.68,0,0,1-1-1h0c-.18.19-1,1.18-.7,2.11a1.13,1.13,0,0,0,1.15.8h.09c.53-.14,4-1.11,4.93-1.43A3.91,3.91,0,0,0,36.9,46.29Z" />
                        <path class="cls-9"
                            d="M36.48,49.61a8.51,8.51,0,0,1-3.18-.18c-.42-.11-.89-.31-1-.73h0l-.71.19a1.39,1.39,0,0,0,.08,1c.2.37.62.54,1.26.5A11.14,11.14,0,0,0,36.48,49.61Z" />
                        <path class="cls-16"
                            d="M37.6,26.06a3.22,3.22,0,0,0-.61.56c-.24.25-.5.48-.74.74,0,.06,0,.16.08.12a6,6,0,0,0,.78-.54,2.89,2.89,0,0,0,.69-.66C37.87,26.15,37.74,26,37.6,26.06Z" />
                        <path class="cls-16"
                            d="M40.05,24.76a10.86,10.86,0,0,0-1.18,1.17c-.42.44-.86.86-1.29,1.29-.86.85-1.8,1.63-2.65,2.5,0,0,0,.13.07.09a24,24,0,0,0,2.69-2.24c.45-.41.88-.84,1.31-1.27a8.17,8.17,0,0,0,1.25-1.38C40.33,24.79,40.17,24.67,40.05,24.76Z" />
                        <path class="cls-16"
                            d="M40.85,25.51a10.12,10.12,0,0,0-1.18,1.18L38.38,28c-.87.85-1.8,1.63-2.65,2.5,0,0,0,.13.06.09a22.29,22.29,0,0,0,2.7-2.24c.45-.41.88-.84,1.31-1.27a8.21,8.21,0,0,0,1.25-1.38C41.13,25.54,41,25.42,40.85,25.51Z" />
                    </g>
                </g>
            </g>
        </g>
    </g>
</svg>