<svg width="1200" height="850" viewBox="0 0 1200 850" fill="none" xmlns="http://www.w3.org/2000/svg">
<g clip-path="url(#clip0)">
<path d="M0 24C0 10.7452 10.7452 0 24 0H1176C1189.25 0 1200 10.7452 1200 24V826C1200 839.255 1189.25 850 1176 850H24C10.7451 850 0 839.255 0 826L0 24Z" fill="#FF3D00"/>
<path d="M0 24C0 10.7452 10.7452 0 24 0H1176C1189.25 0 1200 10.7452 1200 24V826C1200 839.255 1189.25 850 1176 850H24C10.7451 850 0 839.255 0 826L0 24Z" fill="url(#paint0_linear)"/>
<path d="M854.827 98.3C854.827 100.4 854.421 102.388 853.609 104.264C852.797 106.112 851.691 107.722 850.291 109.094C848.919 110.438 847.281 111.502 845.377 112.286C843.473 113.07 841.429 113.462 839.245 113.462C837.089 113.462 835.059 113.07 833.155 112.286C831.251 111.502 829.599 110.438 828.199 109.094C826.827 107.722 825.735 106.112 824.923 104.264C824.111 102.388 823.705 100.4 823.705 98.3C823.705 96.2 824.111 94.226 824.923 92.378C825.735 90.502 826.827 88.892 828.199 87.548C829.599 86.176 831.251 85.098 833.155 84.314C835.059 83.53 837.089 83.138 839.245 83.138C841.429 83.138 843.473 83.53 845.377 84.314C847.281 85.098 848.919 86.176 850.291 87.548C851.691 88.892 852.797 90.502 853.609 92.378C854.421 94.226 854.827 96.2 854.827 98.3ZM848.569 98.3C848.569 96.928 848.331 95.668 847.855 94.52C847.379 93.344 846.721 92.336 845.881 91.496C845.069 90.628 844.089 89.956 842.941 89.48C841.793 88.976 840.561 88.724 839.245 88.724C837.929 88.724 836.697 88.976 835.549 89.48C834.429 89.956 833.449 90.628 832.609 91.496C831.797 92.336 831.153 93.344 830.677 94.52C830.201 95.668 829.963 96.928 829.963 98.3C829.963 99.644 830.201 100.904 830.677 102.08C831.153 103.256 831.797 104.278 832.609 105.146C833.449 105.986 834.429 106.658 835.549 107.162C836.697 107.638 837.929 107.876 839.245 107.876C840.561 107.876 841.793 107.638 842.941 107.162C844.089 106.658 845.069 105.986 845.881 105.146C846.721 104.278 847.379 103.256 847.855 102.08C848.331 100.904 848.569 99.644 848.569 98.3ZM867.405 113V83.6H890.127V88.892H873.495V95.822H884.541V100.946H873.495V113H867.405ZM902.629 113V83.6H925.351V88.892H908.719V95.822H919.765V100.946H908.719V113H902.629Z" fill="black"/>
<rect x="695" y="140" width="360" height="640" rx="20" fill="white"/>
<rect x="695" y="140" width="360" height="640" rx="20" fill="#212121"/>
<path d="M850.132 753.568C850.077 754.671 849.804 755.542 849.312 756.18C848.819 756.818 848.161 757.137 847.336 757.137C846.484 757.137 845.937 756.754 845.695 755.988C845.449 756.376 845.167 756.665 844.848 756.856C844.533 757.043 844.207 757.137 843.87 757.137C843.223 757.137 842.733 756.872 842.4 756.344C842.068 755.815 841.945 755.084 842.031 754.149C842.1 753.397 842.271 752.728 842.544 752.14C842.822 751.547 843.177 751.082 843.61 750.745C844.048 750.408 844.506 750.239 844.984 750.239C845.354 750.239 845.684 750.289 845.976 750.39C846.267 750.485 846.595 750.677 846.96 750.964L846.604 754.751C846.518 755.804 846.81 756.33 847.479 756.33C847.994 756.33 848.411 756.075 848.73 755.564C849.049 755.054 849.223 754.389 849.25 753.568C849.337 751.796 849.006 750.444 848.259 749.515C847.516 748.585 846.383 748.12 844.861 748.12C843.945 748.12 843.132 748.348 842.421 748.804C841.71 749.255 841.149 749.909 840.739 750.766C840.329 751.622 840.099 752.611 840.049 753.732C839.994 754.863 840.131 755.845 840.459 756.679C840.787 757.508 841.286 758.142 841.956 758.579C842.631 759.021 843.444 759.242 844.396 759.242C844.807 759.242 845.217 759.192 845.627 759.092C846.042 758.992 846.386 758.862 846.659 758.702L846.912 759.488C846.63 759.666 846.254 759.812 845.784 759.926C845.319 760.04 844.848 760.097 844.369 760.097C843.23 760.097 842.25 759.839 841.43 759.324C840.609 758.814 839.994 758.076 839.584 757.109C839.178 756.148 839.003 755.022 839.058 753.732C839.112 752.479 839.393 751.354 839.898 750.355C840.404 749.353 841.09 748.58 841.956 748.038C842.822 747.491 843.799 747.218 844.889 747.218C846.023 747.218 846.996 747.473 847.808 747.983C848.619 748.494 849.223 749.23 849.619 750.191C850.016 751.153 850.187 752.279 850.132 753.568ZM843.118 754.149C843.054 754.797 843.114 755.293 843.296 755.64C843.483 755.986 843.777 756.159 844.178 756.159C844.451 756.159 844.713 756.043 844.964 755.811C845.219 755.578 845.429 755.245 845.593 754.812L845.6 754.751L845.914 751.312C845.659 751.18 845.385 751.114 845.094 751.114C844.561 751.114 844.118 751.385 843.768 751.928C843.421 752.47 843.205 753.211 843.118 754.149ZM857.474 752.604H853.297V757H851.984V747.047H858.15V748.127H853.297V751.531H857.474V752.604ZM863.94 756.269C863.448 756.847 862.726 757.137 861.773 757.137C860.985 757.137 860.383 756.909 859.969 756.453C859.559 755.993 859.351 755.314 859.347 754.416V749.604H860.611V754.382C860.611 755.503 861.067 756.063 861.979 756.063C862.945 756.063 863.587 755.703 863.906 754.983V749.604H865.171V757H863.968L863.94 756.269ZM868.814 747.812V749.604H870.195V750.581H868.814V755.168C868.814 755.464 868.876 755.688 868.999 755.838C869.122 755.984 869.332 756.057 869.628 756.057C869.774 756.057 869.974 756.029 870.229 755.975V757C869.897 757.091 869.573 757.137 869.259 757.137C868.694 757.137 868.268 756.966 867.98 756.624C867.693 756.282 867.55 755.797 867.55 755.168V750.581H866.203V749.604H867.55V747.812H868.814ZM876.245 756.269C875.753 756.847 875.031 757.137 874.078 757.137C873.29 757.137 872.688 756.909 872.273 756.453C871.863 755.993 871.656 755.314 871.651 754.416V749.604H872.916V754.382C872.916 755.503 873.372 756.063 874.283 756.063C875.249 756.063 875.892 755.703 876.211 754.983V749.604H877.476V757H876.272L876.245 756.269ZM882.979 750.738C882.787 750.706 882.58 750.69 882.356 750.69C881.527 750.69 880.964 751.044 880.668 751.75V757H879.403V749.604H880.634L880.654 750.458C881.069 749.797 881.657 749.467 882.418 749.467C882.664 749.467 882.851 749.499 882.979 749.562V750.738ZM887.08 757.137C886.077 757.137 885.262 756.809 884.633 756.152C884.004 755.492 883.689 754.61 883.689 753.507V753.274C883.689 752.541 883.828 751.887 884.106 751.312C884.389 750.734 884.781 750.283 885.282 749.959C885.788 749.631 886.335 749.467 886.923 749.467C887.884 749.467 888.632 749.784 889.165 750.417C889.698 751.05 889.965 751.957 889.965 753.138V753.664H884.954C884.972 754.393 885.184 754.983 885.59 755.435C886 755.881 886.52 756.104 887.148 756.104C887.595 756.104 887.973 756.013 888.283 755.831C888.593 755.649 888.864 755.407 889.097 755.106L889.869 755.708C889.249 756.66 888.32 757.137 887.08 757.137ZM886.923 750.506C886.412 750.506 885.984 750.693 885.638 751.066C885.291 751.436 885.077 751.955 884.995 752.625H888.7V752.529C888.664 751.887 888.491 751.39 888.181 751.039C887.871 750.684 887.451 750.506 886.923 750.506ZM898.981 755.694C898.644 756.177 898.173 756.54 897.566 756.781C896.965 757.018 896.263 757.137 895.461 757.137C894.65 757.137 893.93 756.948 893.301 756.569C892.672 756.187 892.184 755.644 891.838 754.942C891.496 754.241 891.321 753.427 891.312 752.502V751.634C891.312 750.134 891.66 748.972 892.357 748.147C893.059 747.323 894.044 746.91 895.311 746.91C896.35 746.91 897.186 747.177 897.819 747.71C898.453 748.239 898.84 748.991 898.981 749.966H897.669C897.423 748.649 896.639 747.99 895.317 747.99C894.438 747.99 893.77 748.3 893.314 748.92C892.863 749.535 892.635 750.428 892.631 751.6V752.413C892.631 753.53 892.886 754.418 893.396 755.079C893.907 755.735 894.597 756.063 895.468 756.063C895.96 756.063 896.391 756.009 896.76 755.899C897.129 755.79 897.434 755.605 897.676 755.346V753.11H895.372V752.044H898.981V755.694ZM904.553 750.738C904.361 750.706 904.154 750.69 903.931 750.69C903.101 750.69 902.538 751.044 902.242 751.75V757H900.978V749.604H902.208L902.229 750.458C902.643 749.797 903.231 749.467 903.992 749.467C904.238 749.467 904.425 749.499 904.553 749.562V750.738ZM907.096 757H905.831V749.604H907.096V757ZM905.729 747.642C905.729 747.437 905.79 747.263 905.913 747.122C906.041 746.981 906.228 746.91 906.474 746.91C906.72 746.91 906.907 746.981 907.034 747.122C907.162 747.263 907.226 747.437 907.226 747.642C907.226 747.847 907.162 748.018 907.034 748.154C906.907 748.291 906.72 748.359 906.474 748.359C906.228 748.359 906.041 748.291 905.913 748.154C905.79 748.018 905.729 747.847 905.729 747.642ZM910.842 747.812V749.604H912.223V750.581H910.842V755.168C910.842 755.464 910.903 755.688 911.026 755.838C911.149 755.984 911.359 756.057 911.655 756.057C911.801 756.057 912.002 756.029 912.257 755.975V757C911.924 757.091 911.601 757.137 911.286 757.137C910.721 757.137 910.295 756.966 910.008 756.624C909.721 756.282 909.577 755.797 909.577 755.168V750.581H908.23V749.604H909.577V747.812H910.842Z" fill="#4F4F4F"/>
<g filter="url(#filter0_d)">
<circle cx="875" cy="460" r="70" fill="#272727"/>
</g>
<g clip-path="url(#clip1)">
<path d="M895.118 418.654C894.866 418.247 894.421 418 893.942 418H869.504C868.906 418 868.377 418.383 868.189 418.949L854.743 459.565C854.603 459.987 854.675 460.45 854.935 460.811C855.195 461.171 855.613 461.385 856.058 461.385H867.685L856.945 500.246C856.764 500.9 857.084 501.589 857.7 501.873C857.887 501.959 858.084 502 858.279 502C858.727 502 859.162 501.782 859.427 501.39L892.868 451.888C893.155 451.464 893.184 450.916 892.944 450.463C892.703 450.011 892.233 449.728 891.721 449.728H880.503L895.184 419.998C895.396 419.568 895.371 419.06 895.118 418.654ZM877.033 450.5C876.821 450.929 876.846 451.437 877.099 451.844C877.351 452.251 877.796 452.498 878.275 452.498H889.114L861.867 492.831L870.838 460.369C870.953 459.952 870.867 459.505 870.605 459.161C870.344 458.817 869.936 458.615 869.504 458.615H857.975L870.504 420.769H891.714L877.033 450.5Z" fill="#424242"/>
</g>
<path d="M320.121 98.3C320.121 100.4 319.715 102.388 318.904 104.264C318.092 106.112 316.986 107.722 315.586 109.094C314.213 110.438 312.576 111.502 310.672 112.286C308.768 113.07 306.724 113.462 304.539 113.462C302.384 113.462 300.354 113.07 298.449 112.286C296.545 111.502 294.893 110.438 293.493 109.094C292.121 107.722 291.029 106.112 290.217 104.264C289.405 102.388 288.999 100.4 288.999 98.3C288.999 96.2 289.405 94.226 290.217 92.378C291.029 90.502 292.121 88.892 293.493 87.548C294.893 86.176 296.545 85.098 298.449 84.314C300.354 83.53 302.384 83.138 304.539 83.138C306.724 83.138 308.768 83.53 310.672 84.314C312.576 85.098 314.213 86.176 315.586 87.548C316.986 88.892 318.092 90.502 318.904 92.378C319.715 94.226 320.121 96.2 320.121 98.3ZM313.864 98.3C313.864 96.928 313.625 95.668 313.149 94.52C312.674 93.344 312.016 92.336 311.175 91.496C310.364 90.628 309.384 89.956 308.235 89.48C307.087 88.976 305.855 88.724 304.539 88.724C303.224 88.724 301.992 88.976 300.844 89.48C299.724 89.956 298.744 90.628 297.903 91.496C297.091 92.336 296.447 93.344 295.971 94.52C295.495 95.668 295.257 96.928 295.257 98.3C295.257 99.644 295.495 100.904 295.971 102.08C296.447 103.256 297.091 104.278 297.903 105.146C298.744 105.986 299.724 106.658 300.844 107.162C301.992 107.638 303.224 107.876 304.539 107.876C305.855 107.876 307.087 107.638 308.235 107.162C309.384 106.658 310.364 105.986 311.175 105.146C312.016 104.278 312.674 103.256 313.149 102.08C313.625 100.904 313.864 99.644 313.864 98.3ZM332.7 83.6H338.496L353.112 102.626V83.6H358.824V113H353.448L338.454 93.344V113H332.7V83.6Z" fill="black"/>
<rect x="144" y="140" width="360" height="640" rx="20" fill="white"/>
<rect x="144" y="140" width="360" height="640" rx="20" fill="#212121"/>
<path d="M299.132 753.568C299.077 754.671 298.804 755.542 298.312 756.18C297.819 756.818 297.161 757.137 296.336 757.137C295.484 757.137 294.937 756.754 294.695 755.988C294.449 756.376 294.167 756.665 293.848 756.856C293.533 757.043 293.207 757.137 292.87 757.137C292.223 757.137 291.733 756.872 291.4 756.344C291.068 755.815 290.945 755.084 291.031 754.149C291.1 753.397 291.271 752.728 291.544 752.14C291.822 751.547 292.177 751.082 292.61 750.745C293.048 750.408 293.506 750.239 293.984 750.239C294.354 750.239 294.684 750.289 294.976 750.39C295.267 750.485 295.595 750.677 295.96 750.964L295.604 754.751C295.518 755.804 295.81 756.33 296.479 756.33C296.994 756.33 297.411 756.075 297.73 755.564C298.049 755.054 298.223 754.389 298.25 753.568C298.337 751.796 298.006 750.444 297.259 749.515C296.516 748.585 295.383 748.12 293.861 748.12C292.945 748.12 292.132 748.348 291.421 748.804C290.71 749.255 290.149 749.909 289.739 750.766C289.329 751.622 289.099 752.611 289.049 753.732C288.994 754.863 289.131 755.845 289.459 756.679C289.787 757.508 290.286 758.142 290.956 758.579C291.631 759.021 292.444 759.242 293.396 759.242C293.807 759.242 294.217 759.192 294.627 759.092C295.042 758.992 295.386 758.862 295.659 758.702L295.912 759.488C295.63 759.666 295.254 759.812 294.784 759.926C294.319 760.04 293.848 760.097 293.369 760.097C292.23 760.097 291.25 759.839 290.43 759.324C289.609 758.814 288.994 758.076 288.584 757.109C288.178 756.148 288.003 755.022 288.058 753.732C288.112 752.479 288.393 751.354 288.898 750.355C289.404 749.353 290.09 748.58 290.956 748.038C291.822 747.491 292.799 747.218 293.889 747.218C295.023 747.218 295.996 747.473 296.808 747.983C297.619 748.494 298.223 749.23 298.619 750.191C299.016 751.153 299.187 752.279 299.132 753.568ZM292.118 754.149C292.054 754.797 292.114 755.293 292.296 755.64C292.483 755.986 292.777 756.159 293.178 756.159C293.451 756.159 293.713 756.043 293.964 755.811C294.219 755.578 294.429 755.245 294.593 754.812L294.6 754.751L294.914 751.312C294.659 751.18 294.385 751.114 294.094 751.114C293.561 751.114 293.118 751.385 292.768 751.928C292.421 752.47 292.205 753.211 292.118 754.149ZM306.474 752.604H302.297V757H300.984V747.047H307.15V748.127H302.297V751.531H306.474V752.604ZM312.94 756.269C312.448 756.847 311.726 757.137 310.773 757.137C309.985 757.137 309.383 756.909 308.969 756.453C308.559 755.993 308.351 755.314 308.347 754.416V749.604H309.611V754.382C309.611 755.503 310.067 756.063 310.979 756.063C311.945 756.063 312.587 755.703 312.906 754.983V749.604H314.171V757H312.968L312.94 756.269ZM317.814 747.812V749.604H319.195V750.581H317.814V755.168C317.814 755.464 317.876 755.688 317.999 755.838C318.122 755.984 318.332 756.057 318.628 756.057C318.774 756.057 318.974 756.029 319.229 755.975V757C318.897 757.091 318.573 757.137 318.259 757.137C317.694 757.137 317.268 756.966 316.98 756.624C316.693 756.282 316.55 755.797 316.55 755.168V750.581H315.203V749.604H316.55V747.812H317.814ZM325.245 756.269C324.753 756.847 324.031 757.137 323.078 757.137C322.29 757.137 321.688 756.909 321.273 756.453C320.863 755.993 320.656 755.314 320.651 754.416V749.604H321.916V754.382C321.916 755.503 322.372 756.063 323.283 756.063C324.249 756.063 324.892 755.703 325.211 754.983V749.604H326.476V757H325.272L325.245 756.269ZM331.979 750.738C331.787 750.706 331.58 750.69 331.356 750.69C330.527 750.69 329.964 751.044 329.668 751.75V757H328.403V749.604H329.634L329.654 750.458C330.069 749.797 330.657 749.467 331.418 749.467C331.664 749.467 331.851 749.499 331.979 749.562V750.738ZM336.08 757.137C335.077 757.137 334.262 756.809 333.633 756.152C333.004 755.492 332.689 754.61 332.689 753.507V753.274C332.689 752.541 332.828 751.887 333.106 751.312C333.389 750.734 333.781 750.283 334.282 749.959C334.788 749.631 335.335 749.467 335.923 749.467C336.884 749.467 337.632 749.784 338.165 750.417C338.698 751.05 338.965 751.957 338.965 753.138V753.664H333.954C333.972 754.393 334.184 754.983 334.59 755.435C335 755.881 335.52 756.104 336.148 756.104C336.595 756.104 336.973 756.013 337.283 755.831C337.593 755.649 337.864 755.407 338.097 755.106L338.869 755.708C338.249 756.66 337.32 757.137 336.08 757.137ZM335.923 750.506C335.412 750.506 334.984 750.693 334.638 751.066C334.291 751.436 334.077 751.955 333.995 752.625H337.7V752.529C337.664 751.887 337.491 751.39 337.181 751.039C336.871 750.684 336.451 750.506 335.923 750.506ZM347.981 755.694C347.644 756.177 347.173 756.54 346.566 756.781C345.965 757.018 345.263 757.137 344.461 757.137C343.65 757.137 342.93 756.948 342.301 756.569C341.672 756.187 341.184 755.644 340.838 754.942C340.496 754.241 340.321 753.427 340.312 752.502V751.634C340.312 750.134 340.66 748.972 341.357 748.147C342.059 747.323 343.044 746.91 344.311 746.91C345.35 746.91 346.186 747.177 346.819 747.71C347.453 748.239 347.84 748.991 347.981 749.966H346.669C346.423 748.649 345.639 747.99 344.317 747.99C343.438 747.99 342.77 748.3 342.314 748.92C341.863 749.535 341.635 750.428 341.631 751.6V752.413C341.631 753.53 341.886 754.418 342.396 755.079C342.907 755.735 343.597 756.063 344.468 756.063C344.96 756.063 345.391 756.009 345.76 755.899C346.129 755.79 346.434 755.605 346.676 755.346V753.11H344.372V752.044H347.981V755.694ZM353.553 750.738C353.361 750.706 353.154 750.69 352.931 750.69C352.101 750.69 351.538 751.044 351.242 751.75V757H349.978V749.604H351.208L351.229 750.458C351.643 749.797 352.231 749.467 352.992 749.467C353.238 749.467 353.425 749.499 353.553 749.562V750.738ZM356.096 757H354.831V749.604H356.096V757ZM354.729 747.642C354.729 747.437 354.79 747.263 354.913 747.122C355.041 746.981 355.228 746.91 355.474 746.91C355.72 746.91 355.907 746.981 356.034 747.122C356.162 747.263 356.226 747.437 356.226 747.642C356.226 747.847 356.162 748.018 356.034 748.154C355.907 748.291 355.72 748.359 355.474 748.359C355.228 748.359 355.041 748.291 354.913 748.154C354.79 748.018 354.729 747.847 354.729 747.642ZM359.842 747.812V749.604H361.223V750.581H359.842V755.168C359.842 755.464 359.903 755.688 360.026 755.838C360.149 755.984 360.359 756.057 360.655 756.057C360.801 756.057 361.002 756.029 361.257 755.975V757C360.924 757.091 360.601 757.137 360.286 757.137C359.721 757.137 359.295 756.966 359.008 756.624C358.721 756.282 358.577 755.797 358.577 755.168V750.581H357.23V749.604H358.577V747.812H359.842Z" fill="#4F4F4F"/>
<g filter="url(#filter1_d)">
<circle cx="324" cy="460" r="70" fill="#212121"/>
<circle cx="324" cy="460" r="70.5" stroke="#FD9808"/>
</g>
<g clip-path="url(#clip2)">
<path d="M344.445 418.654C344.193 418.247 343.748 418 343.269 418H318.831C318.233 418 317.704 418.383 317.516 418.949L304.07 459.565C303.93 459.987 304.002 460.45 304.262 460.811C304.522 461.171 304.94 461.385 305.385 461.385H317.012L306.272 500.246C306.091 500.9 306.411 501.589 307.027 501.873C307.214 501.959 307.411 502 307.606 502C308.054 502 308.489 501.782 308.754 501.39L342.195 451.888C342.482 451.464 342.511 450.916 342.271 450.463C342.03 450.011 341.56 449.728 341.048 449.728H329.83L344.511 419.998C344.723 419.568 344.698 419.06 344.445 418.654Z" fill="#FD9808"/>
</g>
</g>
<defs>
<filter id="filter0_d" x="799" y="384" width="152" height="152" filterUnits="userSpaceOnUse" color-interpolation-filters="sRGB">
<feFlood flood-opacity="0" result="BackgroundImageFix"/>
<feColorMatrix in="SourceAlpha" type="matrix" values="0 0 0 0 0 0 0 0 0 0 0 0 0 0 0 0 0 0 127 0"/>
<feMorphology radius="2" operator="dilate" in="SourceAlpha" result="effect1_dropShadow"/>
<feOffset/>
<feGaussianBlur stdDeviation="2"/>
<feColorMatrix type="matrix" values="0 0 0 0 0.258824 0 0 0 0 0.258824 0 0 0 0 0.258824 0 0 0 1 0"/>
<feBlend mode="normal" in2="BackgroundImageFix" result="effect1_dropShadow"/>
<feBlend mode="normal" in="SourceGraphic" in2="effect1_dropShadow" result="shape"/>
</filter>
<filter id="filter1_d" x="235" y="371" width="178" height="178" filterUnits="userSpaceOnUse" color-interpolation-filters="sRGB">
<feFlood flood-opacity="0" result="BackgroundImageFix"/>
<feColorMatrix in="SourceAlpha" type="matrix" values="0 0 0 0 0 0 0 0 0 0 0 0 0 0 0 0 0 0 127 0"/>
<feMorphology radius="2" operator="dilate" in="SourceAlpha" result="effect1_dropShadow"/>
<feOffset/>
<feGaussianBlur stdDeviation="8"/>
<feColorMatrix type="matrix" values="0 0 0 0 0.992157 0 0 0 0 0.596078 0 0 0 0 0.0313726 0 0 0 1 0"/>
<feBlend mode="normal" in2="BackgroundImageFix" result="effect1_dropShadow"/>
<feBlend mode="normal" in="SourceGraphic" in2="effect1_dropShadow" result="shape"/>
</filter>
<linearGradient id="paint0_linear" x1="600.908" y1="850" x2="600.908" y2="1.14876e-05" gradientUnits="userSpaceOnUse">
<stop stop-color="#C3CFE2"/>
<stop offset="1" stop-color="#F5F7FA"/>
</linearGradient>
<clipPath id="clip0">
<rect width="1200" height="850" rx="20" fill="white"/>
</clipPath>
<clipPath id="clip1">
<rect width="84" height="84" fill="white" transform="translate(833 418)"/>
</clipPath>
<clipPath id="clip2">
<rect width="84" height="84" fill="white" transform="translate(282 418)"/>
</clipPath>
</defs>
</svg>
